<svg width="514" height="204" viewBox="0 0 514 204" fill="none" xmlns="http://www.w3.org/2000/svg">
<mask id="path-1-outside-1_3003_1293" maskUnits="userSpaceOnUse" x="3" y="48" width="508" height="105" fill="black">
<rect fill="white" x="3" y="48" width="508" height="105"/>
<path d="M4.76 102.4C4.76 93.0613 6.84533 84.72 11.016 77.376C15.2773 69.9413 21.0347 64.184 28.288 60.104C35.632 55.9333 43.8373 53.848 52.904 53.848C63.512 53.848 72.8053 56.568 80.784 62.008C88.7627 67.448 94.3387 74.9733 97.512 84.584H75.616C73.44 80.0507 70.3573 76.6507 66.368 74.384C62.4693 72.1173 57.936 70.984 52.768 70.984C47.2373 70.984 42.296 72.2987 37.944 74.928C33.6827 77.4667 30.328 81.0933 27.88 85.808C25.5227 90.5227 24.344 96.0533 24.344 102.4C24.344 108.656 25.5227 114.187 27.88 118.992C30.328 123.707 33.6827 127.379 37.944 130.008C42.296 132.547 47.2373 133.816 52.768 133.816C57.936 133.816 62.4693 132.683 66.368 130.416C70.3573 128.059 73.44 124.613 75.616 120.08H97.512C94.3387 129.781 88.7627 137.352 80.784 142.792C72.896 148.141 63.6027 150.816 52.904 150.816C43.8373 150.816 35.632 148.776 28.288 144.696C21.0347 140.525 15.2773 134.768 11.016 127.424C6.84533 120.08 4.76 111.739 4.76 102.4ZM184.903 74.656V150H165.727V140.48C163.279 143.744 160.06 146.328 156.071 148.232C152.172 150.045 147.911 150.952 143.287 150.952C137.393 150.952 132.18 149.728 127.647 147.28C123.113 144.741 119.532 141.069 116.903 136.264C114.364 131.368 113.095 125.565 113.095 118.856V74.656H132.135V116.136C132.135 122.12 133.631 126.744 136.623 130.008C139.615 133.181 143.695 134.768 148.863 134.768C154.121 134.768 158.247 133.181 161.239 130.008C164.231 126.744 165.727 122.12 165.727 116.136V74.656H184.903ZM222.729 49.36V150H203.689V49.36H222.729ZM263.708 90.296V126.744C263.708 129.283 264.298 131.141 265.476 132.32C266.746 133.408 268.831 133.952 271.732 133.952H280.572V150H268.604C252.556 150 244.532 142.203 244.532 126.608V90.296H235.556V74.656H244.532V56.024H263.708V74.656H280.572V90.296H263.708ZM365.395 74.656V150H346.219V140.48C343.771 143.744 340.552 146.328 336.563 148.232C332.664 150.045 328.403 150.952 323.779 150.952C317.885 150.952 312.672 149.728 308.139 147.28C303.605 144.741 300.024 141.069 297.395 136.264C294.856 131.368 293.587 125.565 293.587 118.856V74.656H312.627V116.136C312.627 122.12 314.123 126.744 317.115 130.008C320.107 133.181 324.187 134.768 329.355 134.768C334.613 134.768 338.739 133.181 341.731 130.008C344.723 126.744 346.219 122.12 346.219 116.136V74.656H365.395ZM403.221 86.352C405.669 82.3627 408.842 79.2347 412.741 76.968C416.73 74.7013 421.264 73.568 426.341 73.568V93.56H421.309C415.325 93.56 410.792 94.9653 407.709 97.776C404.717 100.587 403.221 105.483 403.221 112.464V150H384.181V74.656H403.221V86.352ZM509.205 110.696C509.205 113.416 509.024 115.864 508.661 118.04H453.581C454.035 123.48 455.939 127.741 459.293 130.824C462.648 133.907 466.773 135.448 471.669 135.448C478.741 135.448 483.773 132.411 486.765 126.336H507.301C505.125 133.589 500.955 139.573 494.789 144.288C488.624 148.912 481.053 151.224 472.077 151.224C464.824 151.224 458.296 149.637 452.493 146.464C446.781 143.2 442.293 138.621 439.029 132.728C435.856 126.835 434.269 120.035 434.269 112.328C434.269 104.531 435.856 97.6853 439.029 91.792C442.203 85.8987 446.645 81.3653 452.357 78.192C458.069 75.0187 464.643 73.432 472.077 73.432C479.24 73.432 485.632 74.9733 491.253 78.056C496.965 81.1387 501.363 85.536 504.445 91.248C507.619 96.8693 509.205 103.352 509.205 110.696ZM489.485 105.256C489.395 100.36 487.627 96.4613 484.181 93.56C480.736 90.568 476.52 89.072 471.533 89.072C466.819 89.072 462.829 90.5227 459.565 93.424C456.392 96.2347 454.443 100.179 453.717 105.256H489.485Z"/>
</mask>
<path d="M11.016 77.376L10.1484 76.8787L10.1464 76.8822L11.016 77.376ZM28.288 60.104L28.7783 60.9756L28.7818 60.9736L28.288 60.104ZM97.512 84.584V85.584H98.8953L98.4616 84.2705L97.512 84.584ZM75.616 84.584L74.7145 85.0167L74.9868 85.584H75.616V84.584ZM66.368 74.384L65.8654 75.2485L65.874 75.2534L66.368 74.384ZM37.944 74.928L38.4558 75.7871L38.4611 75.7839L37.944 74.928ZM27.88 85.808L26.9925 85.3472L26.989 85.354L26.9856 85.3608L27.88 85.808ZM27.88 118.992L26.9822 119.432L26.9872 119.443L26.9925 119.453L27.88 118.992ZM37.944 130.008L37.4189 130.859L37.4294 130.866L37.4401 130.872L37.944 130.008ZM66.368 130.416L66.8706 131.281L66.8767 131.277L66.368 130.416ZM75.616 120.08V119.08H74.9868L74.7145 119.647L75.616 120.08ZM97.512 120.08L98.4624 120.391L98.8912 119.08H97.512V120.08ZM80.784 142.792L81.3453 143.62L81.3473 143.618L80.784 142.792ZM28.288 144.696L27.7895 145.563L27.7959 145.567L27.8024 145.57L28.288 144.696ZM11.016 127.424L10.1464 127.918L10.1511 127.926L11.016 127.424ZM5.76 102.4C5.76 93.2157 7.80919 85.0478 11.8856 77.8698L10.1464 76.8822C5.88147 84.3922 3.76 92.907 3.76 102.4H5.76ZM11.8836 77.8733C16.058 70.5902 21.687 64.9644 28.7783 60.9756L27.7977 59.2324C20.3823 63.4036 14.4967 69.2924 10.1484 76.8787L11.8836 77.8733ZM28.7818 60.9736C35.9642 56.8946 43.9973 54.848 52.904 54.848V52.848C43.6774 52.848 35.2998 54.972 27.7942 59.2344L28.7818 60.9736ZM52.904 54.848C63.3317 54.848 72.4244 57.5186 80.2207 62.8342L81.3473 61.1818C73.1863 55.6174 63.6923 52.848 52.904 52.848V54.848ZM80.2207 62.8342C88.0086 68.1442 93.4545 75.4848 96.5624 84.8975L98.4616 84.2705C95.2229 74.4619 89.5167 66.7518 81.3473 61.1818L80.2207 62.8342ZM97.512 83.584H75.616V85.584H97.512V83.584ZM76.5175 84.1513C74.2622 79.4527 71.0455 75.8915 66.862 73.5145L65.874 75.2534C69.6692 77.4098 72.6178 80.6486 74.7145 85.0167L76.5175 84.1513ZM66.8706 73.5195C62.7982 71.1518 58.0864 69.984 52.768 69.984V71.984C57.7856 71.984 62.1405 73.0829 65.8654 75.2485L66.8706 73.5195ZM52.768 69.984C47.0716 69.984 41.9485 71.3403 37.4269 74.0721L38.4611 75.7839C42.6435 73.257 47.4031 71.984 52.768 71.984V69.984ZM37.4322 74.0689C32.9996 76.7096 29.5199 80.4796 26.9925 85.3472L28.7675 86.2688C31.1361 81.7071 34.3657 78.2237 38.4558 75.7871L37.4322 74.0689ZM26.9856 85.3608C24.546 90.2398 23.344 95.9294 23.344 102.4H25.344C25.344 96.1773 26.4993 90.8055 28.7744 86.2552L26.9856 85.3608ZM23.344 102.4C23.344 108.783 24.5472 114.469 26.9822 119.432L28.7778 118.552C26.4982 113.905 25.344 108.529 25.344 102.4H23.344ZM26.9925 119.453C29.5185 124.318 32.9942 128.129 37.4189 130.859L38.4691 129.157C34.3711 126.628 31.1375 123.096 28.7675 118.531L26.9925 119.453ZM37.4401 130.872C41.9597 133.508 47.0781 134.816 52.768 134.816V132.816C47.3966 132.816 42.6323 131.585 38.4479 129.144L37.4401 130.872ZM52.768 134.816C58.0864 134.816 62.7982 133.648 66.8706 131.281L65.8654 129.551C62.1405 131.717 57.7856 132.816 52.768 132.816V134.816ZM66.8767 131.277C71.0511 128.81 74.2635 125.209 76.5175 120.513L74.7145 119.647C72.6165 124.018 69.6636 127.307 65.8593 129.555L66.8767 131.277ZM75.616 121.08H97.512V119.08H75.616V121.08ZM96.5616 119.769C93.4527 129.273 88.0061 136.658 80.2207 141.966L81.3473 143.618C89.5192 138.046 95.2247 130.289 98.4624 120.391L96.5616 119.769ZM80.2227 141.964C72.5202 147.188 63.428 149.816 52.904 149.816V151.816C63.7774 151.816 73.2718 149.095 81.3453 143.62L80.2227 141.964ZM52.904 149.816C43.9934 149.816 35.9574 147.813 28.7736 143.822L27.8024 145.57C35.3066 149.739 43.6812 151.816 52.904 151.816V149.816ZM28.7865 143.829C21.6875 139.747 16.0556 134.117 11.8809 126.922L10.1511 127.926C14.4991 135.419 20.3818 141.303 27.7895 145.563L28.7865 143.829ZM11.8856 126.93C7.80919 119.752 5.76 111.584 5.76 102.4H3.76C3.76 111.893 5.88147 120.408 10.1464 127.918L11.8856 126.93ZM184.903 74.656H185.903V73.656H184.903V74.656ZM184.903 150V151H185.903V150H184.903ZM165.727 150H164.727V151H165.727V150ZM165.727 140.48H166.727V137.48L164.927 139.88L165.727 140.48ZM156.071 148.232L156.492 149.139L156.501 149.134L156.071 148.232ZM127.647 147.28L127.158 148.153L127.165 148.156L127.171 148.16L127.647 147.28ZM116.903 136.264L116.015 136.724L116.02 136.734L116.025 136.744L116.903 136.264ZM113.095 74.656V73.656H112.095V74.656H113.095ZM132.135 74.656H133.135V73.656H132.135V74.656ZM136.623 130.008L135.885 130.684L135.895 130.694L136.623 130.008ZM161.239 130.008L161.966 130.694L161.976 130.684L161.239 130.008ZM165.727 74.656V73.656H164.727V74.656H165.727ZM183.903 74.656V150H185.903V74.656H183.903ZM184.903 149H165.727V151H184.903V149ZM166.727 150V140.48H164.727V150H166.727ZM164.927 139.88C162.583 143.004 159.496 145.489 155.64 147.33L156.501 149.134C160.624 147.167 163.974 144.484 166.527 141.08L164.927 139.88ZM155.649 147.325C151.892 149.073 147.776 149.952 143.287 149.952V151.952C148.045 151.952 152.452 151.018 156.492 149.139L155.649 147.325ZM143.287 149.952C137.535 149.952 132.489 148.759 128.122 146.4L127.171 148.16C131.871 150.697 137.252 151.952 143.287 151.952V149.952ZM128.135 146.408C123.775 143.966 120.324 140.434 117.78 135.784L116.025 136.744C118.74 141.705 122.452 145.517 127.158 148.153L128.135 146.408ZM117.79 135.804C115.34 131.078 114.095 125.439 114.095 118.856H112.095C112.095 125.691 113.388 131.658 116.015 136.724L117.79 135.804ZM114.095 118.856V74.656H112.095V118.856H114.095ZM113.095 75.656H132.135V73.656H113.095V75.656ZM131.135 74.656V116.136H133.135V74.656H131.135ZM131.135 116.136C131.135 122.281 132.672 127.179 135.885 130.684L137.36 129.332C134.589 126.309 133.135 121.959 133.135 116.136H131.135ZM135.895 130.694C139.111 134.105 143.474 135.768 148.863 135.768V133.768C143.915 133.768 140.118 132.258 137.35 129.322L135.895 130.694ZM148.863 135.768C154.336 135.768 158.747 134.108 161.966 130.694L160.511 129.322C157.746 132.254 153.907 133.768 148.863 133.768V135.768ZM161.976 130.684C165.189 127.179 166.727 122.281 166.727 116.136H164.727C164.727 121.959 163.272 126.309 160.501 129.332L161.976 130.684ZM166.727 116.136V74.656H164.727V116.136H166.727ZM165.727 75.656H184.903V73.656H165.727V75.656ZM222.729 49.36H223.729V48.36H222.729V49.36ZM222.729 150V151H223.729V150H222.729ZM203.689 150H202.689V151H203.689V150ZM203.689 49.36V48.36H202.689V49.36H203.689ZM221.729 49.36V150H223.729V49.36H221.729ZM222.729 149H203.689V151H222.729V149ZM204.689 150V49.36H202.689V150H204.689ZM203.689 50.36H222.729V48.36H203.689V50.36ZM263.708 90.296V89.296H262.708V90.296H263.708ZM265.476 132.32L264.769 133.027L264.796 133.054L264.825 133.079L265.476 132.32ZM280.572 133.952H281.572V132.952H280.572V133.952ZM280.572 150V151H281.572V150H280.572ZM244.532 90.296H245.532V89.296H244.532V90.296ZM235.556 90.296H234.556V91.296H235.556V90.296ZM235.556 74.656V73.656H234.556V74.656H235.556ZM244.532 74.656V75.656H245.532V74.656H244.532ZM244.532 56.024V55.024H243.532V56.024H244.532ZM263.708 56.024H264.708V55.024H263.708V56.024ZM263.708 74.656H262.708V75.656H263.708V74.656ZM280.572 74.656H281.572V73.656H280.572V74.656ZM280.572 90.296V91.296H281.572V90.296H280.572ZM262.708 90.296V126.744H264.708V90.296H262.708ZM262.708 126.744C262.708 129.412 263.325 131.583 264.769 133.027L266.183 131.613C265.271 130.7 264.708 129.154 264.708 126.744H262.708ZM264.825 133.079C266.369 134.402 268.752 134.952 271.732 134.952V132.952C268.91 132.952 267.123 132.414 266.127 131.561L264.825 133.079ZM271.732 134.952H280.572V132.952H271.732V134.952ZM279.572 133.952V150H281.572V133.952H279.572ZM280.572 149H268.604V151H280.572V149ZM268.604 149C260.727 149 255.005 147.086 251.247 143.435C247.495 139.789 245.532 134.244 245.532 126.608H243.532C243.532 134.567 245.581 140.718 249.853 144.869C254.12 149.015 260.433 151 268.604 151V149ZM245.532 126.608V90.296H243.532V126.608H245.532ZM244.532 89.296H235.556V91.296H244.532V89.296ZM236.556 90.296V74.656H234.556V90.296H236.556ZM235.556 75.656H244.532V73.656H235.556V75.656ZM245.532 74.656V56.024H243.532V74.656H245.532ZM244.532 57.024H263.708V55.024H244.532V57.024ZM262.708 56.024V74.656H264.708V56.024H262.708ZM263.708 75.656H280.572V73.656H263.708V75.656ZM279.572 74.656V90.296H281.572V74.656H279.572ZM280.572 89.296H263.708V91.296H280.572V89.296ZM365.395 74.656H366.395V73.656H365.395V74.656ZM365.395 150V151H366.395V150H365.395ZM346.219 150H345.219V151H346.219V150ZM346.219 140.48H347.219V137.48L345.419 139.88L346.219 140.48ZM336.563 148.232L336.985 149.139L336.994 149.134L336.563 148.232ZM308.139 147.28L307.65 148.153L307.657 148.156L307.664 148.16L308.139 147.28ZM297.395 136.264L296.507 136.724L296.512 136.734L296.518 136.744L297.395 136.264ZM293.587 74.656V73.656H292.587V74.656H293.587ZM312.627 74.656H313.627V73.656H312.627V74.656ZM317.115 130.008L316.378 130.684L316.387 130.694L317.115 130.008ZM341.731 130.008L342.458 130.694L342.468 130.684L341.731 130.008ZM346.219 74.656V73.656H345.219V74.656H346.219ZM364.395 74.656V150H366.395V74.656H364.395ZM365.395 149H346.219V151H365.395V149ZM347.219 150V140.48H345.219V150H347.219ZM345.419 139.88C343.076 143.004 339.988 145.489 336.132 147.33L336.994 149.134C341.116 147.167 344.466 144.484 347.019 141.08L345.419 139.88ZM336.141 147.325C332.384 149.073 328.268 149.952 323.779 149.952V151.952C328.537 151.952 332.944 151.018 336.985 149.139L336.141 147.325ZM323.779 149.952C318.027 149.952 312.982 148.759 308.614 146.4L307.664 148.16C312.363 150.697 317.744 151.952 323.779 151.952V149.952ZM308.627 146.408C304.267 143.966 300.816 140.434 298.272 135.784L296.518 136.744C299.232 141.705 302.944 145.517 307.65 148.153L308.627 146.408ZM298.283 135.804C295.832 131.078 294.587 125.439 294.587 118.856H292.587C292.587 125.691 293.88 131.658 296.507 136.724L298.283 135.804ZM294.587 118.856V74.656H292.587V118.856H294.587ZM293.587 75.656H312.627V73.656H293.587V75.656ZM311.627 74.656V116.136H313.627V74.656H311.627ZM311.627 116.136C311.627 122.281 313.165 127.179 316.378 130.684L317.852 129.332C315.081 126.309 313.627 121.959 313.627 116.136H311.627ZM316.387 130.694C319.603 134.105 323.967 135.768 329.355 135.768V133.768C324.407 133.768 320.611 132.258 317.842 129.322L316.387 130.694ZM329.355 135.768C334.828 135.768 339.239 134.108 342.458 130.694L341.003 129.322C338.238 132.254 334.399 133.768 329.355 133.768V135.768ZM342.468 130.684C345.681 127.179 347.219 122.281 347.219 116.136H345.219C345.219 121.959 343.765 126.309 340.994 129.332L342.468 130.684ZM347.219 116.136V74.656H345.219V116.136H347.219ZM346.219 75.656H365.395V73.656H346.219V75.656ZM403.221 86.352H402.221V89.8936L404.073 86.875L403.221 86.352ZM412.741 76.968L412.247 76.0985L412.238 76.1035L412.741 76.968ZM426.341 73.568H427.341V72.568H426.341V73.568ZM426.341 93.56V94.56H427.341V93.56H426.341ZM407.709 97.776L407.035 97.037L407.03 97.0421L407.024 97.0471L407.709 97.776ZM403.221 150V151H404.221V150H403.221ZM384.181 150H383.181V151H384.181V150ZM384.181 74.656V73.656H383.181V74.656H384.181ZM403.221 74.656H404.221V73.656H403.221V74.656ZM404.073 86.875C406.438 83.0211 409.493 80.0128 413.243 77.8325L412.238 76.1035C408.191 78.4565 404.9 81.7042 402.369 85.829L404.073 86.875ZM413.235 77.8375C417.058 75.6652 421.418 74.568 426.341 74.568V72.568C421.109 72.568 416.402 73.7374 412.247 76.0985L413.235 77.8375ZM425.341 73.568V93.56H427.341V73.568H425.341ZM426.341 92.56H421.309V94.56H426.341V92.56ZM421.309 92.56C415.183 92.56 410.368 93.9979 407.035 97.037L408.383 98.515C411.215 95.9328 415.467 94.56 421.309 94.56V92.56ZM407.024 97.0471C403.728 100.143 402.221 105.39 402.221 112.464H404.221C404.221 105.576 405.706 101.03 408.394 98.5048L407.024 97.0471ZM402.221 112.464V150H404.221V112.464H402.221ZM403.221 149H384.181V151H403.221V149ZM385.181 150V74.656H383.181V150H385.181ZM384.181 75.656H403.221V73.656H384.181V75.656ZM402.221 74.656V86.352H404.221V74.656H402.221ZM508.661 118.04V119.04H509.508L509.648 118.204L508.661 118.04ZM453.581 118.04V117.04H452.494L452.585 118.123L453.581 118.04ZM459.293 130.824L458.617 131.56L459.293 130.824ZM486.765 126.336V125.336H486.143L485.868 125.894L486.765 126.336ZM507.301 126.336L508.259 126.623L508.645 125.336H507.301V126.336ZM494.789 144.288L495.389 145.088L495.397 145.082L494.789 144.288ZM452.493 146.464L451.997 147.332L452.005 147.337L452.013 147.341L452.493 146.464ZM439.029 132.728L438.149 133.202L438.154 133.212L439.029 132.728ZM439.029 91.792L438.149 91.3179L439.029 91.792ZM452.357 78.192L452.843 79.0662L452.357 78.192ZM491.253 78.056L490.772 78.9328L490.778 78.936L491.253 78.056ZM504.445 91.248L503.565 91.7229L503.57 91.7313L503.574 91.7396L504.445 91.248ZM489.485 105.256V106.256H490.504L490.485 105.237L489.485 105.256ZM484.181 93.56L483.526 94.315L483.531 94.32L483.537 94.3249L484.181 93.56ZM459.565 93.424L460.228 94.1726L460.23 94.1714L459.565 93.424ZM453.717 105.256L452.727 105.115L452.564 106.256H453.717V105.256ZM508.205 110.696C508.205 113.373 508.027 115.765 507.675 117.876L509.648 118.204C510.021 115.963 510.205 113.459 510.205 110.696H508.205ZM508.661 117.04H453.581V119.04H508.661V117.04ZM452.585 118.123C453.055 123.761 455.042 128.275 458.617 131.56L459.97 130.088C456.835 127.207 455.015 123.199 454.578 117.957L452.585 118.123ZM458.617 131.56C462.17 134.826 466.543 136.448 471.669 136.448V134.448C467.003 134.448 463.126 132.987 459.97 130.088L458.617 131.56ZM471.669 136.448C475.35 136.448 478.563 135.656 481.264 134.026C483.968 132.394 486.095 129.96 487.662 126.778L485.868 125.894C484.444 128.787 482.559 130.908 480.23 132.314C477.899 133.721 475.06 134.448 471.669 134.448V136.448ZM486.765 127.336H507.301V125.336H486.765V127.336ZM506.343 126.049C504.23 133.095 500.184 138.903 494.182 143.494L495.397 145.082C501.725 140.243 506.021 134.084 508.259 126.623L506.343 126.049ZM494.189 143.488C488.224 147.962 480.874 150.224 472.077 150.224V152.224C481.233 152.224 489.023 149.862 495.389 145.088L494.189 143.488ZM472.077 150.224C464.975 150.224 458.615 148.672 452.973 145.587L452.013 147.341C457.977 150.603 464.673 152.224 472.077 152.224V150.224ZM452.989 145.596C447.44 142.425 443.082 137.981 439.904 132.243L438.154 133.212C441.505 139.262 446.122 143.975 451.997 147.332L452.989 145.596ZM439.91 132.254C436.826 126.527 435.269 119.894 435.269 112.328H433.269C433.269 120.175 434.886 127.142 438.149 133.202L439.91 132.254ZM435.269 112.328C435.269 104.669 436.827 97.9914 439.91 92.2661L438.149 91.3179C434.885 97.3793 433.269 104.393 433.269 112.328H435.269ZM439.91 92.2661C442.995 86.5368 447.302 82.1443 452.843 79.0662L451.872 77.3178C445.988 80.5864 441.41 85.2605 438.149 91.3179L439.91 92.2661ZM452.843 79.0662C458.387 75.9862 464.789 74.432 472.077 74.432V72.432C464.496 72.432 457.752 74.0512 451.872 77.3178L452.843 79.0662ZM472.077 74.432C479.092 74.432 485.315 75.9401 490.772 78.9328L491.734 77.1792C485.949 74.0066 479.388 72.432 472.077 72.432V74.432ZM490.778 78.936C496.319 81.926 500.575 86.1826 503.565 91.7229L505.325 90.7731C502.15 84.8894 497.612 80.3513 491.728 77.176L490.778 78.936ZM503.574 91.7396C506.652 97.1913 508.205 103.5 508.205 110.696H510.205C510.205 103.204 508.585 96.5474 505.316 90.7564L503.574 91.7396ZM490.485 105.237C490.39 100.081 488.512 95.8998 484.825 92.7951L483.537 94.3249C486.741 97.0229 488.4 100.639 488.485 105.275L490.485 105.237ZM484.837 92.805C481.192 89.6399 476.737 88.072 471.533 88.072V90.072C476.303 90.072 480.28 91.4961 483.526 94.315L484.837 92.805ZM471.533 88.072C466.595 88.072 462.363 89.599 458.901 92.6766L460.23 94.1714C463.295 91.4463 467.042 90.072 471.533 90.072V88.072ZM458.902 92.6754C455.516 95.6746 453.479 99.8539 452.727 105.115L454.707 105.397C455.406 100.503 457.268 96.7947 460.228 94.1726L458.902 92.6754ZM453.717 106.256H489.485V104.256H453.717V106.256Z" fill="white" fill-opacity="0.3" mask="url(#path-1-outside-1_3003_1293)"/>
<mask id="path-3-outside-2_3003_1293" maskUnits="userSpaceOnUse" x="93" y="68" width="328" height="78" fill="black">
<rect fill="white" x="93" y="68" width="328" height="78"/>
<path d="M100.94 108.6C100.94 102.832 102.228 97.68 104.804 93.144C107.436 88.552 110.992 84.996 115.472 82.476C120.008 79.9 125.076 78.612 130.676 78.612C137.228 78.612 142.968 80.292 147.896 83.652C152.824 87.012 156.268 91.66 158.228 97.596H144.704C143.36 94.796 141.456 92.696 138.992 91.296C136.584 89.896 133.784 89.196 130.592 89.196C127.176 89.196 124.124 90.008 121.436 91.632C118.804 93.2 116.732 95.44 115.22 98.352C113.764 101.264 113.036 104.68 113.036 108.6C113.036 112.464 113.764 115.88 115.22 118.848C116.732 121.76 118.804 124.028 121.436 125.652C124.124 127.22 127.176 128.004 130.592 128.004C133.784 128.004 136.584 127.304 138.992 125.904C141.456 124.448 143.36 122.32 144.704 119.52H158.228C156.268 125.512 152.824 130.188 147.896 133.548C143.024 136.852 137.284 138.504 130.676 138.504C125.076 138.504 120.008 137.244 115.472 134.724C110.992 132.148 107.436 128.592 104.804 124.056C102.228 119.52 100.94 114.368 100.94 108.6ZM212.205 91.464V138H200.361V132.12C198.849 134.136 196.861 135.732 194.397 136.908C191.989 138.028 189.357 138.588 186.501 138.588C182.861 138.588 179.641 137.832 176.841 136.32C174.041 134.752 171.829 132.484 170.205 129.516C168.637 126.492 167.853 122.908 167.853 118.764V91.464H179.613V117.084C179.613 120.78 180.537 123.636 182.385 125.652C184.233 127.612 186.753 128.592 189.945 128.592C193.193 128.592 195.741 127.612 197.589 125.652C199.437 123.636 200.361 120.78 200.361 117.084V91.464H212.205ZM235.568 75.84V138H223.808V75.84H235.568ZM260.879 101.124V123.636C260.879 125.204 261.243 126.352 261.971 127.08C262.755 127.752 264.043 128.088 265.835 128.088H271.295V138H263.903C253.991 138 249.035 133.184 249.035 123.552V101.124H243.491V91.464H249.035V79.956H260.879V91.464H271.295V101.124H260.879ZM323.685 91.464V138H311.841V132.12C310.329 134.136 308.341 135.732 305.877 136.908C303.469 138.028 300.837 138.588 297.981 138.588C294.341 138.588 291.121 137.832 288.321 136.32C285.521 134.752 283.309 132.484 281.685 129.516C280.117 126.492 279.333 122.908 279.333 118.764V91.464H291.093V117.084C291.093 120.78 292.017 123.636 293.865 125.652C295.713 127.612 298.233 128.592 301.425 128.592C304.673 128.592 307.221 127.612 309.069 125.652C310.917 123.636 311.841 120.78 311.841 117.084V91.464H323.685ZM347.048 98.688C348.56 96.224 350.52 94.292 352.928 92.892C355.392 91.492 358.192 90.792 361.328 90.792V103.14H358.22C354.524 103.14 351.724 104.008 349.82 105.744C347.972 107.48 347.048 110.504 347.048 114.816V138H335.288V91.464H347.048V98.688ZM412.509 113.724C412.509 115.404 412.397 116.916 412.173 118.26H378.153C378.433 121.62 379.609 124.252 381.681 126.156C383.753 128.06 386.301 129.012 389.325 129.012C393.693 129.012 396.801 127.136 398.649 123.384H411.333C409.989 127.864 407.413 131.56 403.605 134.472C399.797 137.328 395.121 138.756 389.577 138.756C385.097 138.756 381.065 137.776 377.481 135.816C373.953 133.8 371.181 130.972 369.165 127.332C367.205 123.692 366.225 119.492 366.225 114.732C366.225 109.916 367.205 105.688 369.165 102.048C371.125 98.408 373.869 95.608 377.397 93.648C380.925 91.688 384.985 90.708 389.577 90.708C394.001 90.708 397.949 91.66 401.421 93.564C404.949 95.468 407.665 98.184 409.569 101.712C411.529 105.184 412.509 109.188 412.509 113.724ZM400.329 110.364C400.273 107.34 399.181 104.932 397.053 103.14C394.925 101.292 392.321 100.368 389.241 100.368C386.329 100.368 383.865 101.264 381.849 103.056C379.889 104.792 378.685 107.228 378.237 110.364H400.329Z"/>
</mask>
<path d="M100.94 108.6C100.94 102.832 102.228 97.68 104.804 93.144C107.436 88.552 110.992 84.996 115.472 82.476C120.008 79.9 125.076 78.612 130.676 78.612C137.228 78.612 142.968 80.292 147.896 83.652C152.824 87.012 156.268 91.66 158.228 97.596H144.704C143.36 94.796 141.456 92.696 138.992 91.296C136.584 89.896 133.784 89.196 130.592 89.196C127.176 89.196 124.124 90.008 121.436 91.632C118.804 93.2 116.732 95.44 115.22 98.352C113.764 101.264 113.036 104.68 113.036 108.6C113.036 112.464 113.764 115.88 115.22 118.848C116.732 121.76 118.804 124.028 121.436 125.652C124.124 127.22 127.176 128.004 130.592 128.004C133.784 128.004 136.584 127.304 138.992 125.904C141.456 124.448 143.36 122.32 144.704 119.52H158.228C156.268 125.512 152.824 130.188 147.896 133.548C143.024 136.852 137.284 138.504 130.676 138.504C125.076 138.504 120.008 137.244 115.472 134.724C110.992 132.148 107.436 128.592 104.804 124.056C102.228 119.52 100.94 114.368 100.94 108.6ZM212.205 91.464V138H200.361V132.12C198.849 134.136 196.861 135.732 194.397 136.908C191.989 138.028 189.357 138.588 186.501 138.588C182.861 138.588 179.641 137.832 176.841 136.32C174.041 134.752 171.829 132.484 170.205 129.516C168.637 126.492 167.853 122.908 167.853 118.764V91.464H179.613V117.084C179.613 120.78 180.537 123.636 182.385 125.652C184.233 127.612 186.753 128.592 189.945 128.592C193.193 128.592 195.741 127.612 197.589 125.652C199.437 123.636 200.361 120.78 200.361 117.084V91.464H212.205ZM235.568 75.84V138H223.808V75.84H235.568ZM260.879 101.124V123.636C260.879 125.204 261.243 126.352 261.971 127.08C262.755 127.752 264.043 128.088 265.835 128.088H271.295V138H263.903C253.991 138 249.035 133.184 249.035 123.552V101.124H243.491V91.464H249.035V79.956H260.879V91.464H271.295V101.124H260.879ZM323.685 91.464V138H311.841V132.12C310.329 134.136 308.341 135.732 305.877 136.908C303.469 138.028 300.837 138.588 297.981 138.588C294.341 138.588 291.121 137.832 288.321 136.32C285.521 134.752 283.309 132.484 281.685 129.516C280.117 126.492 279.333 122.908 279.333 118.764V91.464H291.093V117.084C291.093 120.78 292.017 123.636 293.865 125.652C295.713 127.612 298.233 128.592 301.425 128.592C304.673 128.592 307.221 127.612 309.069 125.652C310.917 123.636 311.841 120.78 311.841 117.084V91.464H323.685ZM347.048 98.688C348.56 96.224 350.52 94.292 352.928 92.892C355.392 91.492 358.192 90.792 361.328 90.792V103.14H358.22C354.524 103.14 351.724 104.008 349.82 105.744C347.972 107.48 347.048 110.504 347.048 114.816V138H335.288V91.464H347.048V98.688ZM412.509 113.724C412.509 115.404 412.397 116.916 412.173 118.26H378.153C378.433 121.62 379.609 124.252 381.681 126.156C383.753 128.06 386.301 129.012 389.325 129.012C393.693 129.012 396.801 127.136 398.649 123.384H411.333C409.989 127.864 407.413 131.56 403.605 134.472C399.797 137.328 395.121 138.756 389.577 138.756C385.097 138.756 381.065 137.776 377.481 135.816C373.953 133.8 371.181 130.972 369.165 127.332C367.205 123.692 366.225 119.492 366.225 114.732C366.225 109.916 367.205 105.688 369.165 102.048C371.125 98.408 373.869 95.608 377.397 93.648C380.925 91.688 384.985 90.708 389.577 90.708C394.001 90.708 397.949 91.66 401.421 93.564C404.949 95.468 407.665 98.184 409.569 101.712C411.529 105.184 412.509 109.188 412.509 113.724ZM400.329 110.364C400.273 107.34 399.181 104.932 397.053 103.14C394.925 101.292 392.321 100.368 389.241 100.368C386.329 100.368 383.865 101.264 381.849 103.056C379.889 104.792 378.685 107.228 378.237 110.364H400.329Z" fill="white"/>
<path d="M104.804 93.144L98.7309 89.6631L98.7239 89.6751L98.7171 89.6872L104.804 93.144ZM115.472 82.476L118.904 88.577L118.916 88.57L118.929 88.5629L115.472 82.476ZM158.228 97.596V104.596H167.911L164.875 95.4012L158.228 97.596ZM144.704 97.596L138.393 100.625L140.299 104.596H144.704V97.596ZM138.992 91.296L135.474 97.3475L135.504 97.365L135.534 97.3822L138.992 91.296ZM121.436 91.632L125.019 97.6457L125.037 97.6346L125.056 97.6234L121.436 91.632ZM115.22 98.352L109.008 95.1263L108.983 95.1737L108.959 95.2215L115.22 98.352ZM115.22 118.848L108.935 121.931L108.971 122.003L109.008 122.074L115.22 118.848ZM121.436 125.652L117.76 131.609L117.834 131.655L117.909 131.698L121.436 125.652ZM138.992 125.904L142.51 131.956L142.532 131.943L142.553 131.93L138.992 125.904ZM144.704 119.52V112.52H140.299L138.393 116.491L144.704 119.52ZM158.228 119.52L164.881 121.696L167.883 112.52H158.228V119.52ZM147.896 133.548L151.825 139.341L151.832 139.337L151.839 139.332L147.896 133.548ZM115.472 134.724L111.983 140.792L112.027 140.818L112.072 140.843L115.472 134.724ZM104.804 124.056L98.7171 127.513L98.7331 127.541L98.7494 127.569L104.804 124.056ZM107.94 108.6C107.94 103.913 108.975 99.9744 110.891 96.6008L98.7171 89.6872C95.481 95.3856 93.94 101.751 93.94 108.6H107.94ZM110.877 96.6249C112.901 93.0944 115.558 90.4589 118.904 88.577L112.04 76.375C106.426 79.5331 101.971 84.0096 98.7309 89.6631L110.877 96.6249ZM118.929 88.5629C122.334 86.6292 126.196 85.612 130.676 85.612V71.612C123.956 71.612 117.682 73.1708 112.015 76.3891L118.929 88.5629ZM130.676 85.612C135.966 85.612 140.301 86.9459 143.953 89.4356L151.839 77.8684C145.635 73.6381 138.49 71.612 130.676 71.612V85.612ZM143.953 89.4356C147.546 91.8853 150.078 95.2403 151.581 99.7908L164.875 95.4012C162.458 88.0797 158.102 82.1387 151.839 77.8684L143.953 89.4356ZM158.228 90.596H144.704V104.596H158.228V90.596ZM151.015 94.5669C149.115 90.6102 146.273 87.382 142.45 85.2098L135.534 97.3822C136.639 98.01 137.605 98.9818 138.393 100.625L151.015 94.5669ZM142.51 85.2444C138.886 83.1372 134.837 82.196 130.592 82.196V96.196C132.731 96.196 134.282 96.6548 135.474 97.3475L142.51 85.2444ZM130.592 82.196C126.016 82.196 121.691 83.2993 117.816 85.6406L125.056 97.6234C126.557 96.7167 128.336 96.196 130.592 96.196V82.196ZM117.853 85.6183C114.023 87.9005 111.075 91.1439 109.008 95.1263L121.432 101.578C122.389 99.7361 123.585 98.4995 125.019 97.6457L117.853 85.6183ZM108.959 95.2215C106.928 99.2842 106.036 103.813 106.036 108.6H120.036C120.036 105.547 120.6 103.244 121.481 101.482L108.959 95.2215ZM106.036 108.6C106.036 113.353 106.935 117.854 108.935 121.931L121.505 115.765C120.593 113.906 120.036 111.575 120.036 108.6H106.036ZM109.008 122.074C111.066 126.038 113.985 129.28 117.76 131.609L125.112 119.695C123.623 118.776 122.398 117.482 121.432 115.622L109.008 122.074ZM117.909 131.698C121.77 133.951 126.061 135.004 130.592 135.004V121.004C128.291 121.004 126.478 120.489 124.963 119.606L117.909 131.698ZM130.592 135.004C134.837 135.004 138.886 134.063 142.51 131.956L135.474 119.852C134.282 120.545 132.731 121.004 130.592 121.004V135.004ZM142.553 131.93C146.312 129.709 149.124 126.487 151.015 122.549L138.393 116.491C137.596 118.153 136.6 119.187 135.431 119.878L142.553 131.93ZM144.704 126.52H158.228V112.52H144.704V126.52ZM151.575 117.344C150.066 121.957 147.528 125.326 143.953 127.764L151.839 139.332C158.12 135.05 162.47 129.067 164.881 121.696L151.575 117.344ZM143.967 127.755C140.394 130.178 136.061 131.504 130.676 131.504V145.504C138.507 145.504 145.654 143.526 151.825 139.341L143.967 127.755ZM130.676 131.504C126.169 131.504 122.286 130.502 118.872 128.605L112.072 140.843C117.73 143.986 123.983 145.504 130.676 145.504V131.504ZM118.961 128.656C115.562 126.701 112.884 124.033 110.859 120.543L98.7494 127.569C101.988 133.151 106.422 137.595 111.983 140.792L118.961 128.656ZM110.891 120.599C108.975 117.226 107.94 113.287 107.94 108.6H93.94C93.94 115.449 95.481 121.814 98.7171 127.513L110.891 120.599ZM212.205 91.464H219.205V84.464H212.205V91.464ZM212.205 138V145H219.205V138H212.205ZM200.361 138H193.361V145H200.361V138ZM200.361 132.12H207.361V111.12L194.761 127.92L200.361 132.12ZM194.397 136.908L197.349 143.255L197.38 143.24L197.412 143.225L194.397 136.908ZM176.841 136.32L173.42 142.428L173.467 142.454L173.515 142.479L176.841 136.32ZM170.205 129.516L163.99 132.738L164.026 132.808L164.064 132.876L170.205 129.516ZM167.853 91.464V84.464H160.853V91.464H167.853ZM179.613 91.464H186.613V84.464H179.613V91.464ZM182.385 125.652L177.224 130.382L177.258 130.418L177.291 130.454L182.385 125.652ZM197.589 125.652L202.682 130.454L202.715 130.418L202.749 130.382L197.589 125.652ZM200.361 91.464V84.464H193.361V91.464H200.361ZM205.205 91.464V138H219.205V91.464H205.205ZM212.205 131H200.361V145H212.205V131ZM207.361 138V132.12H193.361V138H207.361ZM194.761 127.92C193.982 128.958 192.913 129.86 191.381 130.591L197.412 143.225C200.809 141.604 203.715 139.314 205.961 136.32L194.761 127.92ZM191.444 130.561C190.03 131.219 188.415 131.588 186.501 131.588V145.588C190.298 145.588 193.948 144.837 197.349 143.255L191.444 130.561ZM186.501 131.588C183.853 131.588 181.806 131.046 180.167 130.161L173.515 142.479C177.475 144.618 181.868 145.588 186.501 145.588V131.588ZM180.261 130.212C178.671 129.322 177.374 128.036 176.345 126.156L164.064 132.876C166.283 136.932 169.41 140.182 173.42 142.428L180.261 130.212ZM176.419 126.294C175.467 124.459 174.853 122.026 174.853 118.764H160.853C160.853 123.79 161.806 128.525 163.99 132.738L176.419 126.294ZM174.853 118.764V91.464H160.853V118.764H174.853ZM167.853 98.464H179.613V84.464H167.853V98.464ZM172.613 91.464V117.084H186.613V91.464H172.613ZM172.613 117.084C172.613 121.907 173.83 126.679 177.224 130.382L187.545 120.922C187.244 120.593 186.613 119.653 186.613 117.084H172.613ZM177.291 130.454C180.706 134.075 185.211 135.592 189.945 135.592V121.592C188.294 121.592 187.759 121.149 187.478 120.85L177.291 130.454ZM189.945 135.592C194.693 135.592 199.244 134.1 202.682 130.454L192.495 120.85C192.237 121.124 191.692 121.592 189.945 121.592V135.592ZM202.749 130.382C206.144 126.679 207.361 121.907 207.361 117.084H193.361C193.361 119.653 192.73 120.593 192.428 120.922L202.749 130.382ZM207.361 117.084V91.464H193.361V117.084H207.361ZM200.361 98.464H212.205V84.464H200.361V98.464ZM235.568 75.84H242.568V68.84H235.568V75.84ZM235.568 138V145H242.568V138H235.568ZM223.808 138H216.808V145H223.808V138ZM223.808 75.84V68.84H216.808V75.84H223.808ZM228.568 75.84V138H242.568V75.84H228.568ZM235.568 131H223.808V145H235.568V131ZM230.808 138V75.84H216.808V138H230.808ZM223.808 82.84H235.568V68.84H223.808V82.84ZM260.879 101.124V94.124H253.879V101.124H260.879ZM261.971 127.08L257.021 132.03L257.211 132.22L257.415 132.395L261.971 127.08ZM271.295 128.088H278.295V121.088H271.295V128.088ZM271.295 138V145H278.295V138H271.295ZM249.035 101.124H256.035V94.124H249.035V101.124ZM243.491 101.124H236.491V108.124H243.491V101.124ZM243.491 91.464V84.464H236.491V91.464H243.491ZM249.035 91.464V98.464H256.035V91.464H249.035ZM249.035 79.956V72.956H242.035V79.956H249.035ZM260.879 79.956H267.879V72.956H260.879V79.956ZM260.879 91.464H253.879V98.464H260.879V91.464ZM271.295 91.464H278.295V84.464H271.295V91.464ZM271.295 101.124V108.124H278.295V101.124H271.295ZM253.879 101.124V123.636H267.879V101.124H253.879ZM253.879 123.636C253.879 126.107 254.432 129.441 257.021 132.03L266.92 122.13C267.474 122.684 267.725 123.244 267.824 123.557C267.913 123.838 267.879 123.906 267.879 123.636H253.879ZM257.415 132.395C260.115 134.709 263.489 135.088 265.835 135.088V121.088C265.344 121.088 265.199 121.039 265.292 121.063C265.389 121.088 265.913 121.24 266.526 121.765L257.415 132.395ZM265.835 135.088H271.295V121.088H265.835V135.088ZM264.295 128.088V138H278.295V128.088H264.295ZM271.295 131H263.903V145H271.295V131ZM263.903 131C259.976 131 258.326 130.044 257.63 129.368C256.971 128.727 256.035 127.237 256.035 123.552H242.035C242.035 129.499 243.576 135.233 247.873 139.408C252.133 143.548 257.917 145 263.903 145V131ZM256.035 123.552V101.124H242.035V123.552H256.035ZM249.035 94.124H243.491V108.124H249.035V94.124ZM250.491 101.124V91.464H236.491V101.124H250.491ZM243.491 98.464H249.035V84.464H243.491V98.464ZM256.035 91.464V79.956H242.035V91.464H256.035ZM249.035 86.956H260.879V72.956H249.035V86.956ZM253.879 79.956V91.464H267.879V79.956H253.879ZM260.879 98.464H271.295V84.464H260.879V98.464ZM264.295 91.464V101.124H278.295V91.464H264.295ZM271.295 94.124H260.879V108.124H271.295V94.124ZM323.685 91.464H330.685V84.464H323.685V91.464ZM323.685 138V145H330.685V138H323.685ZM311.841 138H304.841V145H311.841V138ZM311.841 132.12H318.841V111.12L306.241 127.92L311.841 132.12ZM305.877 136.908L308.829 143.255L308.861 143.24L308.892 143.225L305.877 136.908ZM288.321 136.32L284.901 142.428L284.948 142.454L284.995 142.479L288.321 136.32ZM281.685 129.516L275.471 132.738L275.507 132.808L275.544 132.876L281.685 129.516ZM279.333 91.464V84.464H272.333V91.464H279.333ZM291.093 91.464H298.093V84.464H291.093V91.464ZM293.865 125.652L288.705 130.382L288.738 130.418L288.772 130.454L293.865 125.652ZM309.069 125.652L314.162 130.454L314.196 130.418L314.229 130.382L309.069 125.652ZM311.841 91.464V84.464H304.841V91.464H311.841ZM316.685 91.464V138H330.685V91.464H316.685ZM323.685 131H311.841V145H323.685V131ZM318.841 138V132.12H304.841V138H318.841ZM306.241 127.92C305.463 128.958 304.393 129.86 302.862 130.591L308.892 143.225C312.289 141.604 315.195 139.314 317.441 136.32L306.241 127.92ZM302.925 130.561C301.51 131.219 299.895 131.588 297.981 131.588V145.588C301.779 145.588 305.428 144.837 308.829 143.255L302.925 130.561ZM297.981 131.588C295.334 131.588 293.286 131.046 291.647 130.161L284.995 142.479C288.956 144.618 293.349 145.588 297.981 145.588V131.588ZM291.741 130.212C290.152 129.322 288.855 128.036 287.826 126.156L275.544 132.876C277.763 136.932 280.891 140.182 284.901 142.428L291.741 130.212ZM287.899 126.294C286.948 124.459 286.333 122.026 286.333 118.764H272.333C272.333 123.79 273.286 128.525 275.471 132.738L287.899 126.294ZM286.333 118.764V91.464H272.333V118.764H286.333ZM279.333 98.464H291.093V84.464H279.333V98.464ZM284.093 91.464V117.084H298.093V91.464H284.093ZM284.093 117.084C284.093 121.907 285.31 126.679 288.705 130.382L299.025 120.922C298.724 120.593 298.093 119.653 298.093 117.084H284.093ZM288.772 130.454C292.186 134.075 296.692 135.592 301.425 135.592V121.592C299.774 121.592 299.24 121.149 298.958 120.85L288.772 130.454ZM301.425 135.592C306.173 135.592 310.724 134.1 314.162 130.454L303.976 120.85C303.718 121.124 303.173 121.592 301.425 121.592V135.592ZM314.229 130.382C317.624 126.679 318.841 121.907 318.841 117.084H304.841C304.841 119.653 304.21 120.593 303.909 120.922L314.229 130.382ZM318.841 117.084V91.464H304.841V117.084H318.841ZM311.841 98.464H323.685V84.464H311.841V98.464ZM347.048 98.688H340.048V123.479L353.014 102.349L347.048 98.688ZM352.928 92.892L349.47 86.8058L349.44 86.823L349.41 86.8404L352.928 92.892ZM361.328 90.792H368.328V83.792H361.328V90.792ZM361.328 103.14V110.14H368.328V103.14H361.328ZM349.82 105.744L345.104 100.571L345.065 100.606L345.027 100.642L349.82 105.744ZM347.048 138V145H354.048V138H347.048ZM335.288 138H328.288V145H335.288V138ZM335.288 91.464V84.464H328.288V91.464H335.288ZM347.048 91.464H354.048V84.464H347.048V91.464ZM353.014 102.349C353.945 100.833 355.078 99.739 356.447 98.9436L349.41 86.8404C345.962 88.845 343.176 91.6146 341.082 95.0269L353.014 102.349ZM356.386 98.9782C357.687 98.2393 359.272 97.792 361.328 97.792V83.792C357.112 83.792 353.098 84.7447 349.47 86.8058L356.386 98.9782ZM354.328 90.792V103.14H368.328V90.792H354.328ZM361.328 96.14H358.22V110.14H361.328V96.14ZM358.22 96.14C353.531 96.14 348.762 97.236 345.104 100.571L354.536 110.917C354.686 110.78 355.517 110.14 358.22 110.14V96.14ZM345.027 100.642C341.051 104.377 340.048 109.853 340.048 114.816H354.048C354.048 113.12 354.235 112.017 354.436 111.36C354.628 110.73 354.773 110.696 354.613 110.846L345.027 100.642ZM340.048 114.816V138H354.048V114.816H340.048ZM347.048 131H335.288V145H347.048V131ZM342.288 138V91.464H328.288V138H342.288ZM335.288 98.464H347.048V84.464H335.288V98.464ZM340.048 91.464V98.688H354.048V91.464H340.048ZM412.173 118.26V125.26H418.103L419.078 119.411L412.173 118.26ZM378.153 118.26V111.26H370.546L371.177 118.841L378.153 118.26ZM381.681 126.156L376.945 131.31L376.945 131.31L381.681 126.156ZM398.649 123.384V116.384H394.294L392.37 120.291L398.649 123.384ZM411.333 123.384L418.038 125.395L420.741 116.384H411.333V123.384ZM403.605 134.472L407.805 140.072L407.831 140.052L407.857 140.033L403.605 134.472ZM377.481 135.816L374.008 141.894L374.065 141.926L374.122 141.958L377.481 135.816ZM369.165 127.332L363.002 130.651L363.021 130.687L363.042 130.723L369.165 127.332ZM369.165 102.048L363.002 98.7293L363.002 98.7293L369.165 102.048ZM377.397 93.648L380.797 99.7671L380.797 99.7671L377.397 93.648ZM401.421 93.564L398.055 99.7017L398.076 99.713L398.097 99.7242L401.421 93.564ZM409.569 101.712L403.409 105.037L403.441 105.095L403.473 105.153L409.569 101.712ZM400.329 110.364V117.364H407.46L407.328 110.234L400.329 110.364ZM397.053 103.14L392.463 108.425L392.503 108.46L392.544 108.494L397.053 103.14ZM381.849 103.056L386.49 108.296L386.5 108.288L381.849 103.056ZM378.237 110.364L371.307 109.374L370.166 117.364H378.237V110.364ZM405.509 113.724C405.509 115.104 405.416 116.221 405.268 117.109L419.078 119.411C419.378 117.611 419.509 115.704 419.509 113.724H405.509ZM412.173 111.26H378.153V125.26H412.173V111.26ZM371.177 118.841C371.573 123.586 373.331 127.989 376.945 131.31L386.418 121.002C385.887 120.515 385.294 119.654 385.129 117.679L371.177 118.841ZM376.945 131.31C380.41 134.495 384.69 136.012 389.325 136.012V122.012C387.912 122.012 387.096 121.625 386.418 121.002L376.945 131.31ZM389.325 136.012C392.524 136.012 395.701 135.317 398.549 133.598C401.416 131.867 403.505 129.367 404.929 126.477L392.37 120.291C391.945 121.153 391.556 121.467 391.315 121.612C391.055 121.769 390.494 122.012 389.325 122.012V136.012ZM398.649 130.384H411.333V116.384H398.649V130.384ZM404.628 121.373C403.719 124.404 402.021 126.871 399.353 128.911L407.857 140.033C412.805 136.249 416.259 131.324 418.038 125.395L404.628 121.373ZM399.405 128.872C397.001 130.675 393.865 131.756 389.577 131.756V145.756C396.377 145.756 402.593 143.981 407.805 140.072L399.405 128.872ZM389.577 131.756C386.155 131.756 383.297 131.018 380.84 129.674L374.122 141.958C378.834 144.534 384.039 145.756 389.577 145.756V131.756ZM380.954 129.738C378.567 128.374 376.699 126.488 375.289 123.941L363.042 130.723C365.663 135.456 369.34 139.226 374.008 141.894L380.954 129.738ZM375.328 124.013C373.996 121.538 373.225 118.51 373.225 114.732H359.225C359.225 120.474 360.415 125.846 363.002 130.651L375.328 124.013ZM373.225 114.732C373.225 110.883 374.002 107.83 375.328 105.367L363.002 98.7293C360.408 103.546 359.225 108.949 359.225 114.732H373.225ZM375.328 105.367C376.67 102.875 378.468 101.061 380.797 99.7671L373.998 87.5289C369.27 90.1555 365.58 93.9411 363.002 98.7293L375.328 105.367ZM380.797 99.7671C383.149 98.4605 386.009 97.708 389.577 97.708V83.708C383.962 83.708 378.702 84.9155 373.998 87.5289L380.797 99.7671ZM389.577 97.708C392.965 97.708 395.731 98.4273 398.055 99.7017L404.787 87.4263C400.167 84.8927 395.037 83.708 389.577 83.708V97.708ZM398.097 99.7242C400.423 100.98 402.153 102.71 403.409 105.037L415.729 98.3875C413.177 93.6579 409.475 89.9563 404.746 87.4038L398.097 99.7242ZM403.473 105.153C404.763 107.438 405.509 110.225 405.509 113.724H419.509C419.509 108.151 418.295 102.93 415.665 98.2708L403.473 105.153ZM407.328 110.234C407.238 105.39 405.38 101.001 401.562 97.7856L392.544 108.494C392.982 108.863 393.308 109.29 393.33 110.494L407.328 110.234ZM401.643 97.8548C398.12 94.7951 393.839 93.368 389.241 93.368V107.368C390.803 107.368 391.731 107.789 392.463 108.425L401.643 97.8548ZM389.241 93.368C384.763 93.368 380.602 94.7985 377.199 97.8241L386.5 108.288C387.128 107.73 387.895 107.368 389.241 107.368V93.368ZM377.208 97.8159C373.758 100.871 371.939 104.954 371.307 109.374L385.167 111.354C385.431 109.502 386.02 108.713 386.49 108.296L377.208 97.8159ZM378.237 117.364H400.329V103.364H378.237V117.364Z" fill="#ABDEEB" mask="url(#path-3-outside-2_3003_1293)"/>
</svg>
