<svg width="18" height="18" viewBox="0 0 18 18" fill="none" xmlns="http://www.w3.org/2000/svg">
<path fill-rule="evenodd" clip-rule="evenodd" d="M9.02078 1C8.68694 1 8.43774 1.18189 8.29633 1.31006C8.14079 1.45105 8.00377 1.62949 7.88546 1.80787C7.64658 2.16803 7.41227 2.63856 7.19992 3.11762C6.77199 4.08304 6.38559 5.19309 6.18364 5.79907C6.18068 5.80796 6.17195 5.81495 6.16139 5.81531C5.52865 5.8367 4.36904 5.89345 3.35833 6.0417C2.85901 6.11494 2.35614 6.21592 1.96351 6.36214C1.77019 6.43414 1.55936 6.5329 1.38545 6.67618C1.20945 6.82119 1 7.07533 1 7.44182C1 7.69529 1.09589 7.91967 1.18268 8.07979C1.27571 8.25142 1.39866 8.42151 1.53018 8.58212C1.79377 8.90404 2.14232 9.24866 2.50268 9.57641C3.22684 10.235 4.06546 10.8854 4.54259 11.245C4.55012 11.2507 4.55362 11.2601 4.55051 11.2704C4.36727 11.872 4.04904 12.9729 3.84659 13.9939C3.74604 14.5011 3.66839 15.0159 3.65673 15.4507C3.65093 15.667 3.66045 15.8909 3.7037 16.0962C3.74397 16.2874 3.83247 16.5558 4.05896 16.756C4.31316 16.9807 4.61911 17.0105 4.83095 16.9974C5.04757 16.984 5.26452 16.9213 5.45786 16.8483C5.8483 16.7009 6.28902 16.4543 6.71161 16.188C7.56531 15.6501 8.46928 14.952 8.98336 14.5415C8.99266 14.534 9.00633 14.5338 9.01609 14.5416C9.53006 14.9525 10.4348 15.6511 11.2949 16.1894C11.7208 16.456 12.1661 16.7026 12.5633 16.8498C12.7605 16.9228 12.9796 16.9844 13.1982 16.9975C13.4128 17.0103 13.7103 16.9802 13.9641 16.7717C14.202 16.5764 14.3008 16.3082 14.3467 16.1092C14.395 15.8997 14.4062 15.6722 14.4008 15.4542C14.3901 15.0162 14.3084 14.4994 14.2026 13.9924C13.9894 12.9712 13.6522 11.87 13.457 11.2658C13.4536 11.2551 13.4572 11.2451 13.465 11.2393C13.9446 10.8777 14.7814 10.2282 15.5031 9.57117C15.8622 9.24422 16.2094 8.90058 16.4719 8.57953C16.6029 8.41934 16.7254 8.24966 16.8181 8.07839C16.9046 7.91855 17 7.6947 17 7.44182C17 7.07572 16.791 6.8217 16.6151 6.67665C16.4414 6.53336 16.2308 6.4346 16.0377 6.36261C15.6457 6.21641 15.1435 6.11542 14.6448 6.04216C13.6354 5.89387 12.4767 5.83696 11.8426 5.81544C11.8319 5.81508 11.8233 5.80812 11.8204 5.79915C11.623 5.19136 11.2463 4.08227 10.827 3.11819C10.619 2.63984 10.3888 2.16976 10.1529 1.80976C10.0361 1.63147 9.90033 1.45268 9.74533 1.31123C9.60404 1.18228 9.35512 1 9.02078 1Z" stroke="#009833" stroke-linecap="round" stroke-linejoin="round"/>
</svg>
