<svg width="202" height="74" viewBox="0 0 202 74" fill="none" xmlns="http://www.w3.org/2000/svg">
<path d="M30.808 18.892V51H24.368V37.338H10.614V51H4.174V18.892H10.614V32.094H24.368V18.892H30.808ZM40.4127 22.48C39.278 22.48 38.3273 22.1273 37.5607 21.422C36.8247 20.686 36.4567 19.7813 36.4567 18.708C36.4567 17.6347 36.8247 16.7453 37.5607 16.04C38.3273 15.304 39.278 14.936 40.4127 14.936C41.5473 14.936 42.4827 15.304 43.2187 16.04C43.9853 16.7453 44.3687 17.6347 44.3687 18.708C44.3687 19.7813 43.9853 20.686 43.2187 21.422C42.4827 22.1273 41.5473 22.48 40.4127 22.48ZM43.5867 25.516V51H37.1467V25.516H43.5867ZM59.7014 51.414C57.6161 51.414 55.7454 51.046 54.0894 50.31C52.4334 49.5433 51.1147 48.516 50.1334 47.228C49.1827 45.94 48.6614 44.514 48.5694 42.95H55.0554C55.1781 43.9313 55.6534 44.744 56.4814 45.388C57.3401 46.032 58.3981 46.354 59.6554 46.354C60.8821 46.354 61.8327 46.1087 62.5074 45.618C63.2127 45.1273 63.5654 44.4987 63.5654 43.732C63.5654 42.904 63.1361 42.2907 62.2774 41.892C61.4494 41.4627 60.1154 41.0027 58.2754 40.512C56.3741 40.052 54.8101 39.5767 53.5834 39.086C52.3874 38.5953 51.3447 37.844 50.4554 36.832C49.5967 35.82 49.1674 34.4553 49.1674 32.738C49.1674 31.3273 49.5661 30.0393 50.3634 28.874C51.1914 27.7087 52.3567 26.7887 53.8594 26.114C55.3927 25.4393 57.1867 25.102 59.2414 25.102C62.2774 25.102 64.7001 25.8687 66.5094 27.402C68.3187 28.9047 69.3154 30.944 69.4994 33.52H63.3354C63.2434 32.508 62.8141 31.7107 62.0474 31.128C61.3114 30.5147 60.3147 30.208 59.0574 30.208C57.8921 30.208 56.9874 30.4227 56.3434 30.852C55.7301 31.2813 55.4234 31.8793 55.4234 32.646C55.4234 33.5047 55.8527 34.164 56.7114 34.624C57.5701 35.0533 58.9041 35.498 60.7134 35.958C62.5534 36.418 64.0714 36.8933 65.2674 37.384C66.4634 37.8747 67.4907 38.6413 68.3494 39.684C69.2387 40.696 69.6987 42.0453 69.7294 43.732C69.7294 45.204 69.3154 46.5227 68.4874 47.688C67.6901 48.8533 66.5247 49.7733 64.9914 50.448C63.4887 51.092 61.7254 51.414 59.7014 51.414ZM82.5138 30.806V43.134C82.5138 43.9927 82.7131 44.6213 83.1118 45.02C83.5411 45.388 84.2465 45.572 85.2278 45.572H88.2178V51H84.1698C78.7418 51 76.0278 48.3627 76.0278 43.088V30.806H72.9918V25.516H76.0278V19.214H82.5138V25.516H88.2178V30.806H82.5138ZM104.166 51.414C101.712 51.414 99.5044 50.8773 97.5418 49.804C95.5791 48.7 94.0304 47.1513 92.8958 45.158C91.7918 43.1647 91.2398 40.8647 91.2398 38.258C91.2398 35.6513 91.8071 33.3513 92.9418 31.358C94.1071 29.3647 95.6864 27.8313 97.6798 26.758C99.6731 25.654 101.896 25.102 104.35 25.102C106.803 25.102 109.026 25.654 111.02 26.758C113.013 27.8313 114.577 29.3647 115.712 31.358C116.877 33.3513 117.46 35.6513 117.46 38.258C117.46 40.8647 116.862 43.1647 115.666 45.158C114.5 47.1513 112.906 48.7 110.882 49.804C108.888 50.8773 106.65 51.414 104.166 51.414ZM104.166 45.802C105.331 45.802 106.42 45.526 107.432 44.974C108.474 44.3913 109.302 43.5327 109.916 42.398C110.529 41.2633 110.836 39.8833 110.836 38.258C110.836 35.8353 110.192 33.98 108.904 32.692C107.646 31.3733 106.098 30.714 104.258 30.714C102.418 30.714 100.869 31.3733 99.6118 32.692C98.3851 33.98 97.7718 35.8353 97.7718 38.258C97.7718 40.6807 98.3698 42.5513 99.5658 43.87C100.792 45.158 102.326 45.802 104.166 45.802ZM128.624 29.472C129.452 28.1227 130.525 27.0647 131.844 26.298C133.193 25.5313 134.726 25.148 136.444 25.148V31.91H134.742C132.718 31.91 131.184 32.3853 130.142 33.336C129.13 34.2867 128.624 35.9427 128.624 38.304V51H122.184V25.516H128.624V29.472ZM165.161 25.516L149.383 63.052H142.529L148.049 50.356L137.837 25.516H145.059L151.637 43.318L158.307 25.516H165.161Z" fill="#009833"/>
<line x1="0.918033" y1="72.5022" x2="201.918" y2="61.5022" stroke="#009833" stroke-width="3"/>
</svg>
