<svg width="411" height="204" viewBox="0 0 411 204" fill="none" xmlns="http://www.w3.org/2000/svg">
<mask id="path-1-outside-1_3003_1295" maskUnits="userSpaceOnUse" x="8" y="48" width="398" height="105" fill="black">
<rect fill="white" x="8" y="48" width="398" height="105"/>
<path d="M112.88 55.072V150H93.84V88.256L68.408 150H53.992L28.424 88.256V150H9.384V55.072H31.008L61.2 125.656L91.392 55.072H112.88ZM201.744 110.696C201.744 113.416 201.563 115.864 201.2 118.04H146.12C146.574 123.48 148.478 127.741 151.832 130.824C155.187 133.907 159.312 135.448 164.208 135.448C171.28 135.448 176.312 132.411 179.304 126.336H199.84C197.664 133.589 193.494 139.573 187.328 144.288C181.163 148.912 173.592 151.224 164.616 151.224C157.363 151.224 150.835 149.637 145.032 146.464C139.32 143.2 134.832 138.621 131.568 132.728C128.395 126.835 126.808 120.035 126.808 112.328C126.808 104.531 128.395 97.6853 131.568 91.792C134.742 85.8987 139.184 81.3653 144.896 78.192C150.608 75.0187 157.182 73.432 164.616 73.432C171.779 73.432 178.171 74.9733 183.792 78.056C189.504 81.1387 193.902 85.536 196.984 91.248C200.158 96.8693 201.744 103.352 201.744 110.696ZM182.024 105.256C181.934 100.36 180.166 96.4613 176.72 93.56C173.275 90.568 169.059 89.072 164.072 89.072C159.358 89.072 155.368 90.5227 152.104 93.424C148.931 96.2347 146.982 100.179 146.256 105.256H182.024ZM210.746 112.056C210.746 104.44 212.242 97.6853 215.234 91.792C218.316 85.8987 222.442 81.3653 227.61 78.192C232.868 75.0187 238.716 73.432 245.154 73.432C250.775 73.432 255.671 74.5653 259.842 76.832C264.103 79.0987 267.503 81.9547 270.042 85.4V74.656H289.218V150H270.042V138.984C267.594 142.52 264.194 145.467 259.842 147.824C255.58 150.091 250.639 151.224 245.018 151.224C238.671 151.224 232.868 149.592 227.61 146.328C222.442 143.064 218.316 138.485 215.234 132.592C212.242 126.608 210.746 119.763 210.746 112.056ZM270.042 112.328C270.042 107.704 269.135 103.76 267.322 100.496C265.508 97.1413 263.06 94.6027 259.978 92.88C256.895 91.0667 253.586 90.16 250.05 90.16C246.514 90.16 243.25 91.0213 240.258 92.744C237.266 94.4667 234.818 97.0053 232.914 100.36C231.1 103.624 230.194 107.523 230.194 112.056C230.194 116.589 231.1 120.579 232.914 124.024C234.818 127.379 237.266 129.963 240.258 131.776C243.34 133.589 246.604 134.496 250.05 134.496C253.586 134.496 256.895 133.635 259.978 131.912C263.06 130.099 265.508 127.56 267.322 124.296C269.135 120.941 270.042 116.952 270.042 112.328ZM326.854 49.36V150H307.814V49.36H326.854ZM374.497 151.224C368.332 151.224 362.801 150.136 357.905 147.96C353.009 145.693 349.111 142.656 346.209 138.848C343.399 135.04 341.857 130.824 341.585 126.2H360.761C361.124 129.101 362.529 131.504 364.977 133.408C367.516 135.312 370.644 136.264 374.361 136.264C377.988 136.264 380.799 135.539 382.793 134.088C384.879 132.637 385.921 130.779 385.921 128.512C385.921 126.064 384.652 124.251 382.113 123.072C379.665 121.803 375.721 120.443 370.281 118.992C364.66 117.632 360.036 116.227 356.409 114.776C352.873 113.325 349.791 111.104 347.161 108.112C344.623 105.12 343.353 101.085 343.353 96.008C343.353 91.8373 344.532 88.0293 346.889 84.584C349.337 81.1387 352.783 78.4187 357.225 76.424C361.759 74.4293 367.063 73.432 373.137 73.432C382.113 73.432 389.276 75.6987 394.625 80.232C399.975 84.6747 402.921 90.704 403.465 98.32H385.241C384.969 95.328 383.7 92.9707 381.433 91.248C379.257 89.4347 376.311 88.528 372.593 88.528C369.148 88.528 366.473 89.1627 364.569 90.432C362.756 91.7013 361.849 93.4693 361.849 95.736C361.849 98.2747 363.119 100.224 365.657 101.584C368.196 102.853 372.14 104.168 377.489 105.528C382.929 106.888 387.417 108.293 390.953 109.744C394.489 111.195 397.527 113.461 400.065 116.544C402.695 119.536 404.055 123.525 404.145 128.512C404.145 132.864 402.921 136.763 400.473 140.208C398.116 143.653 394.671 146.373 390.137 148.368C385.695 150.272 380.481 151.224 374.497 151.224Z"/>
</mask>
<path d="M112.88 55.072H113.88V54.072H112.88V55.072ZM112.88 150V151H113.88V150H112.88ZM93.84 150H92.84V151H93.84V150ZM93.84 88.256H94.84L92.9154 87.8751L93.84 88.256ZM68.408 150V151H69.0776L69.3326 150.381L68.408 150ZM53.992 150L53.0681 150.383L53.3237 151H53.992V150ZM28.424 88.256L29.3479 87.8734L27.424 88.256H28.424ZM28.424 150V151H29.424V150H28.424ZM9.384 150H8.384V151H9.384V150ZM9.384 55.072V54.072H8.384V55.072H9.384ZM31.008 55.072L31.9274 54.6787L31.6679 54.072H31.008V55.072ZM61.2 125.656L60.2806 126.049L61.2 128.199L62.1194 126.049L61.2 125.656ZM91.392 55.072V54.072H90.7321L90.4726 54.6787L91.392 55.072ZM111.88 55.072V150H113.88V55.072H111.88ZM112.88 149H93.84V151H112.88V149ZM94.84 150V88.256H92.84V150H94.84ZM92.9154 87.8751L67.4834 149.619L69.3326 150.381L94.7646 88.6368L92.9154 87.8751ZM68.408 149H53.992V151H68.408V149ZM54.9159 149.617L29.3479 87.8734L27.5001 88.6386L53.0681 150.383L54.9159 149.617ZM27.424 88.256V150H29.424V88.256H27.424ZM28.424 149H9.384V151H28.424V149ZM10.384 150V55.072H8.384V150H10.384ZM9.384 56.072H31.008V54.072H9.384V56.072ZM30.0886 55.4653L60.2806 126.049L62.1194 125.263L31.9274 54.6787L30.0886 55.4653ZM62.1194 126.049L92.3114 55.4653L90.4726 54.6787L60.2806 125.263L62.1194 126.049ZM91.392 56.072H112.88V54.072H91.392V56.072ZM201.2 118.04V119.04H202.047L202.187 118.204L201.2 118.04ZM146.12 118.04V117.04H145.034L145.124 118.123L146.12 118.04ZM151.832 130.824L151.156 131.56L151.832 130.824ZM179.304 126.336V125.336H178.682L178.407 125.894L179.304 126.336ZM199.84 126.336L200.798 126.623L201.184 125.336H199.84V126.336ZM187.328 144.288L187.928 145.088L187.936 145.082L187.328 144.288ZM145.032 146.464L144.536 147.332L144.544 147.337L144.553 147.341L145.032 146.464ZM131.568 132.728L130.688 133.202L130.694 133.212L131.568 132.728ZM131.568 91.792L130.688 91.3179L131.568 91.792ZM144.896 78.192L145.382 79.0662L144.896 78.192ZM183.792 78.056L183.311 78.9328L183.317 78.936L183.792 78.056ZM196.984 91.248L196.104 91.7229L196.109 91.7313L196.113 91.7396L196.984 91.248ZM182.024 105.256V106.256H183.043L183.024 105.237L182.024 105.256ZM176.72 93.56L176.065 94.315L176.07 94.32L176.076 94.3249L176.72 93.56ZM152.104 93.424L152.767 94.1726L152.769 94.1714L152.104 93.424ZM146.256 105.256L145.266 105.115L145.103 106.256H146.256V105.256ZM200.744 110.696C200.744 113.373 200.566 115.765 200.214 117.876L202.187 118.204C202.56 115.963 202.744 113.459 202.744 110.696H200.744ZM201.2 117.04H146.12V119.04H201.2V117.04ZM145.124 118.123C145.594 123.761 147.581 128.275 151.156 131.56L152.509 130.088C149.375 127.207 147.554 123.199 147.117 117.957L145.124 118.123ZM151.156 131.56C154.709 134.826 159.082 136.448 164.208 136.448V134.448C159.543 134.448 155.665 132.987 152.509 130.088L151.156 131.56ZM164.208 136.448C167.889 136.448 171.102 135.656 173.803 134.026C176.507 132.394 178.634 129.96 180.201 126.778L178.407 125.894C176.983 128.787 175.098 130.908 172.77 132.314C170.439 133.721 167.599 134.448 164.208 134.448V136.448ZM179.304 127.336H199.84V125.336H179.304V127.336ZM198.882 126.049C196.769 133.095 192.723 138.903 186.721 143.494L187.936 145.082C194.264 140.243 198.56 134.084 200.798 126.623L198.882 126.049ZM186.728 143.488C180.764 147.962 173.413 150.224 164.616 150.224V152.224C173.772 152.224 181.562 149.862 187.928 145.088L186.728 143.488ZM164.616 150.224C157.514 150.224 151.154 148.672 145.512 145.587L144.553 147.341C150.516 150.603 157.212 152.224 164.616 152.224V150.224ZM145.528 145.596C139.979 142.425 135.621 137.981 132.443 132.243L130.694 133.212C134.044 139.262 138.661 143.975 144.536 147.332L145.528 145.596ZM132.449 132.254C129.365 126.527 127.808 119.894 127.808 112.328H125.808C125.808 120.175 127.425 127.142 130.688 133.202L132.449 132.254ZM127.808 112.328C127.808 104.669 129.366 97.9914 132.449 92.2661L130.688 91.3179C127.424 97.3793 125.808 104.393 125.808 112.328H127.808ZM132.449 92.2661C135.534 86.5368 139.841 82.1443 145.382 79.0662L144.411 77.3178C138.527 80.5864 133.949 85.2605 130.688 91.3179L132.449 92.2661ZM145.382 79.0662C150.926 75.9862 157.328 74.432 164.616 74.432V72.432C157.035 72.432 150.291 74.0512 144.411 77.3178L145.382 79.0662ZM164.616 74.432C171.631 74.432 177.854 75.9401 183.311 78.9328L184.273 77.1792C178.488 74.0066 171.927 72.432 164.616 72.432V74.432ZM183.317 78.936C188.858 81.926 193.114 86.1826 196.104 91.7229L197.864 90.7731C194.689 84.8894 190.151 80.3513 184.267 77.176L183.317 78.936ZM196.113 91.7396C199.191 97.1913 200.744 103.5 200.744 110.696H202.744C202.744 103.204 201.124 96.5474 197.855 90.7564L196.113 91.7396ZM183.024 105.237C182.929 100.081 181.051 95.8998 177.364 92.7951L176.076 94.3249C179.28 97.0229 180.939 100.639 181.024 105.275L183.024 105.237ZM177.376 92.805C173.731 89.6399 169.276 88.072 164.072 88.072V90.072C168.842 90.072 172.819 91.4961 176.065 94.315L177.376 92.805ZM164.072 88.072C159.134 88.072 154.902 89.599 151.44 92.6766L152.769 94.1714C155.834 91.4463 159.581 90.072 164.072 90.072V88.072ZM151.441 92.6754C148.055 95.6746 146.018 99.8539 145.266 105.115L147.246 105.397C147.945 100.503 149.807 96.7947 152.767 94.1726L151.441 92.6754ZM146.256 106.256H182.024V104.256H146.256V106.256ZM215.234 91.792L214.348 91.3285L214.342 91.3393L215.234 91.792ZM227.61 78.192L227.093 77.3358L227.087 77.3398L227.61 78.192ZM259.842 76.832L259.364 77.7107L259.372 77.7149L259.842 76.832ZM270.042 85.4L269.237 85.9932L271.042 88.4429V85.4H270.042ZM270.042 74.656V73.656H269.042V74.656H270.042ZM289.218 74.656H290.218V73.656H289.218V74.656ZM289.218 150V151H290.218V150H289.218ZM270.042 150H269.042V151H270.042V150ZM270.042 138.984H271.042V135.783L269.22 138.415L270.042 138.984ZM259.842 147.824L260.311 148.707L260.318 148.703L259.842 147.824ZM227.61 146.328L227.076 147.174L227.082 147.178L227.61 146.328ZM215.234 132.592L214.339 133.039L214.343 133.047L214.348 133.055L215.234 132.592ZM267.322 100.496L266.442 100.972L266.448 100.982L267.322 100.496ZM259.978 92.88L259.471 93.7419L259.48 93.7475L259.49 93.7529L259.978 92.88ZM240.258 92.744L239.759 91.8774L240.258 92.744ZM232.914 100.36L232.044 99.8664L232.04 99.8744L232.914 100.36ZM232.914 124.024L232.029 124.49L232.036 124.504L232.044 124.518L232.914 124.024ZM240.258 131.776L239.739 132.631L239.751 132.638L240.258 131.776ZM259.978 131.912L260.466 132.785L260.475 132.78L260.485 132.774L259.978 131.912ZM267.322 124.296L268.196 124.782L268.202 124.772L267.322 124.296ZM211.746 112.056C211.746 104.573 213.215 97.9778 216.125 92.2447L214.342 91.3393C211.269 97.3929 209.746 104.307 209.746 112.056H211.746ZM216.12 92.2555C219.127 86.5061 223.134 82.1141 228.133 79.0442L227.087 77.3398C221.75 80.6166 217.506 85.2912 214.348 91.3285L216.12 92.2555ZM228.126 79.0482C233.222 75.9736 238.889 74.432 245.154 74.432V72.432C238.544 72.432 232.515 74.0638 227.093 77.3358L228.126 79.0482ZM245.154 74.432C250.639 74.432 255.365 75.5371 259.364 77.7106L260.319 75.9534C255.977 73.5936 250.911 72.432 245.154 72.432V74.432ZM259.372 77.7149C263.518 79.9203 266.798 82.6829 269.237 85.9932L270.847 84.8068C268.209 81.2265 264.688 78.277 260.311 75.9491L259.372 77.7149ZM271.042 85.4V74.656H269.042V85.4H271.042ZM270.042 75.656H289.218V73.656H270.042V75.656ZM288.218 74.656V150H290.218V74.656H288.218ZM289.218 149H270.042V151H289.218V149ZM271.042 150V138.984H269.042V150H271.042ZM269.22 138.415C266.874 141.803 263.6 144.651 259.366 146.945L260.318 148.703C264.787 146.283 268.314 143.236 270.864 139.553L269.22 138.415ZM259.372 146.941C255.278 149.119 250.502 150.224 245.018 150.224V152.224C250.776 152.224 255.883 151.062 260.311 148.707L259.372 146.941ZM245.018 150.224C238.853 150.224 233.233 148.641 228.137 145.478L227.082 147.178C232.504 150.543 238.49 152.224 245.018 152.224V150.224ZM228.144 145.483C223.138 142.321 219.128 137.88 216.12 132.128L214.348 133.055C217.505 139.091 221.746 143.807 227.076 147.173L228.144 145.483ZM216.128 132.145C213.216 126.319 211.746 119.631 211.746 112.056H209.746C209.746 119.894 211.268 126.897 214.339 133.039L216.128 132.145ZM271.042 112.328C271.042 107.574 270.109 103.454 268.196 100.01L266.448 100.982C268.161 104.066 269.042 107.834 269.042 112.328H271.042ZM268.202 100.02C266.305 96.5127 263.727 93.8297 260.466 92.0071L259.49 93.7529C262.394 95.3756 264.712 97.7699 266.442 100.972L268.202 100.02ZM260.485 92.0181C257.25 90.1154 253.766 89.16 250.05 89.16V91.16C253.405 91.16 256.54 92.0179 259.471 93.7419L260.485 92.0181ZM250.05 89.16C246.343 89.16 242.906 90.0651 239.759 91.8774L240.757 93.6106C243.593 91.9775 246.685 91.16 250.05 91.16V89.16ZM239.759 91.8774C236.595 93.6992 234.026 96.3752 232.044 99.8664L233.783 100.854C235.61 97.6355 237.937 95.2341 240.757 93.6106L239.759 91.8774ZM232.04 99.8744C230.128 103.316 229.194 107.389 229.194 112.056H231.194C231.194 107.656 232.073 103.932 233.788 100.846L232.04 99.8744ZM229.194 112.056C229.194 116.725 230.128 120.879 232.029 124.49L233.799 123.558C232.073 120.278 231.194 116.454 231.194 112.056H229.194ZM232.044 124.518C234.024 128.005 236.587 130.72 239.74 132.631L240.776 130.921C237.945 129.205 235.612 126.752 233.783 123.53L232.044 124.518ZM239.751 132.638C242.981 134.538 246.419 135.496 250.05 135.496V133.496C246.79 133.496 243.7 132.641 240.765 130.914L239.751 132.638ZM250.05 135.496C253.756 135.496 257.234 134.591 260.466 132.785L259.49 131.039C256.557 132.678 253.415 133.496 250.05 133.496V135.496ZM260.485 132.774C263.728 130.866 266.3 128.194 268.196 124.782L266.448 123.81C264.717 126.926 262.393 129.331 259.471 131.05L260.485 132.774ZM268.202 124.772C270.109 121.243 271.042 117.083 271.042 112.328H269.042C269.042 116.821 268.161 120.64 266.442 123.82L268.202 124.772ZM326.854 49.36H327.854V48.36H326.854V49.36ZM326.854 150V151H327.854V150H326.854ZM307.814 150H306.814V151H307.814V150ZM307.814 49.36V48.36H306.814V49.36H307.814ZM325.854 49.36V150H327.854V49.36H325.854ZM326.854 149H307.814V151H326.854V149ZM308.814 150V49.36H306.814V150H308.814ZM307.814 50.36H326.854V48.36H307.814V50.36ZM357.905 147.96L357.485 148.867L357.492 148.871L357.499 148.874L357.905 147.96ZM346.209 138.848L345.405 139.442L345.409 139.448L345.414 139.454L346.209 138.848ZM341.585 126.2V125.2H340.525L340.587 126.259L341.585 126.2ZM360.761 126.2L361.754 126.076L361.644 125.2H360.761V126.2ZM364.977 133.408L364.363 134.197L364.37 134.203L364.377 134.208L364.977 133.408ZM382.793 134.088L382.222 133.267L382.214 133.273L382.205 133.279L382.793 134.088ZM382.113 123.072L381.653 123.96L381.672 123.97L381.692 123.979L382.113 123.072ZM370.281 118.992L370.539 118.026L370.528 118.023L370.516 118.02L370.281 118.992ZM356.409 114.776L356.03 115.701L356.038 115.704L356.409 114.776ZM347.161 108.112L346.399 108.759L346.404 108.766L346.41 108.772L347.161 108.112ZM346.889 84.584L346.074 84.0048L346.069 84.012L346.064 84.0193L346.889 84.584ZM357.225 76.424L356.823 75.5087L356.816 75.5117L357.225 76.424ZM394.625 80.232L393.979 80.9949L393.986 81.0013L394.625 80.232ZM403.465 98.32V99.32H404.539L404.463 98.2487L403.465 98.32ZM385.241 98.32L384.245 98.4105L384.328 99.32H385.241V98.32ZM381.433 91.248L380.793 92.0162L380.81 92.0306L380.828 92.0442L381.433 91.248ZM364.569 90.432L364.015 89.5999L364.005 89.6062L363.996 89.6128L364.569 90.432ZM365.657 101.584L365.185 102.465L365.197 102.472L365.21 102.478L365.657 101.584ZM377.489 105.528L377.243 106.497L377.247 106.498L377.489 105.528ZM400.065 116.544L399.293 117.18L399.303 117.192L399.314 117.204L400.065 116.544ZM404.145 128.512H405.145V128.503L405.145 128.494L404.145 128.512ZM400.473 140.208L399.658 139.629L399.653 139.636L399.648 139.643L400.473 140.208ZM390.137 148.368L390.531 149.287L390.54 149.283L390.137 148.368ZM374.497 150.224C368.451 150.224 363.062 149.157 358.311 147.046L357.499 148.874C362.541 151.115 368.213 152.224 374.497 152.224V150.224ZM358.325 147.053C353.558 144.845 349.795 141.905 347.005 138.242L345.414 139.454C348.426 143.407 352.46 146.541 357.485 148.867L358.325 147.053ZM347.014 138.254C344.316 134.598 342.844 130.567 342.584 126.141L340.587 126.259C340.871 131.081 342.482 135.482 345.405 139.442L347.014 138.254ZM341.585 127.2H360.761V125.2H341.585V127.2ZM359.769 126.324C360.167 129.506 361.72 132.141 364.363 134.197L365.591 132.619C363.338 130.867 362.081 128.697 361.754 126.076L359.769 126.324ZM364.377 134.208C367.117 136.263 370.466 137.264 374.361 137.264V135.264C370.822 135.264 367.914 134.361 365.577 132.608L364.377 134.208ZM374.361 137.264C378.104 137.264 381.152 136.518 383.381 134.897L382.205 133.279C380.445 134.56 377.871 135.264 374.361 135.264V137.264ZM383.364 134.909C385.681 133.298 386.921 131.149 386.921 128.512H384.921C384.921 130.408 384.077 131.977 382.222 133.267L383.364 134.909ZM386.921 128.512C386.921 127.106 386.553 125.835 385.788 124.743C385.029 123.658 383.922 122.809 382.534 122.165L381.692 123.979C382.843 124.513 383.64 125.161 384.15 125.889C384.655 126.61 384.921 127.47 384.921 128.512H386.921ZM382.574 122.184C380.024 120.862 375.992 119.48 370.539 118.026L370.024 119.958C375.45 121.405 379.306 122.743 381.653 123.96L382.574 122.184ZM370.516 118.02C364.922 116.666 360.347 115.274 356.781 113.848L356.038 115.704C359.724 117.179 364.398 118.598 370.046 119.964L370.516 118.02ZM356.789 113.851C353.402 112.461 350.444 110.333 347.912 107.452L346.41 108.772C349.137 111.875 352.345 114.189 356.03 115.701L356.789 113.851ZM347.924 107.465C345.579 104.701 344.353 100.919 344.353 96.008H342.353C342.353 101.251 343.666 105.539 346.399 108.759L347.924 107.465ZM344.353 96.008C344.353 92.0391 345.471 88.4279 347.715 85.1487L346.064 84.0193C343.593 87.6308 342.353 91.6356 342.353 96.008H344.353ZM347.704 85.1632C350.034 81.8839 353.329 79.2693 357.635 77.3363L356.816 75.5117C352.236 77.5681 348.64 80.3934 346.074 84.0048L347.704 85.1632ZM357.628 77.3393C362.009 75.4116 367.171 74.432 373.137 74.432V72.432C366.955 72.432 361.508 73.447 356.823 75.5087L357.628 77.3393ZM373.137 74.432C381.944 74.432 388.856 76.6534 393.979 80.9949L395.272 79.4691C389.696 74.7439 382.282 72.432 373.137 72.432V74.432ZM393.986 81.0013C399.104 85.2518 401.941 91.0176 402.468 98.3912L404.463 98.2487C403.901 90.3904 400.845 84.0975 395.264 79.4627L393.986 81.0013ZM403.465 97.32H385.241V99.32H403.465V97.32ZM386.237 98.2295C385.941 94.9752 384.542 92.3547 382.038 90.4518L380.828 92.0442C382.858 93.5866 383.997 95.6807 384.245 98.4105L386.237 98.2295ZM382.073 90.4798C379.668 88.4753 376.471 87.528 372.593 87.528V89.528C376.151 89.528 378.846 90.394 380.793 92.0162L382.073 90.4798ZM372.593 87.528C369.044 87.528 366.146 88.1787 364.015 89.5999L365.124 91.264C366.8 90.1466 369.252 89.528 372.593 89.528V87.528ZM363.996 89.6128C361.908 91.0745 360.849 93.1524 360.849 95.736H362.849C362.849 93.7863 363.604 92.3281 365.143 91.2512L363.996 89.6128ZM360.849 95.736C360.849 97.1806 361.213 98.4959 361.963 99.6477C362.709 100.793 363.802 101.725 365.185 102.465L366.129 100.703C364.974 100.083 364.163 99.3603 363.639 98.5563C363.12 97.7588 362.849 96.83 362.849 95.736H360.849ZM365.21 102.478C367.848 103.797 371.876 105.133 377.243 106.497L377.736 104.559C372.404 103.203 368.544 101.909 366.104 100.69L365.21 102.478ZM377.247 106.498C382.659 107.851 387.098 109.243 390.574 110.669L391.333 108.819C387.737 107.344 383.199 105.925 377.732 104.558L377.247 106.498ZM390.574 110.669C393.95 112.054 396.855 114.219 399.293 117.18L400.837 115.908C398.198 112.704 395.028 110.335 391.333 108.819L390.574 110.669ZM399.314 117.204C401.751 119.977 403.058 123.719 403.145 128.53L405.145 128.494C405.051 123.332 403.638 119.095 400.816 115.884L399.314 117.204ZM403.145 128.512C403.145 132.663 401.982 136.358 399.658 139.629L401.288 140.787C403.86 137.167 405.145 133.065 405.145 128.512H403.145ZM399.648 139.643C397.414 142.908 394.129 145.519 389.735 147.453L390.54 149.283C395.212 147.228 398.818 144.399 401.299 140.773L399.648 139.643ZM389.743 147.449C385.451 149.288 380.377 150.224 374.497 150.224V152.224C380.585 152.224 385.938 151.256 390.531 149.287L389.743 147.449Z" fill="white" fill-opacity="0.4" mask="url(#path-1-outside-1_3003_1295)"/>
<mask id="path-3-outside-2_3003_1295" maskUnits="userSpaceOnUse" x="77" y="66" width="259" height="78" fill="black">
<rect fill="white" x="77" y="66" width="259" height="78"/>
<path d="M148.72 77.368V136H136.96V97.864L121.252 136H112.348L96.556 97.864V136H84.796V77.368H98.152L116.8 120.964L135.448 77.368H148.72ZM203.607 111.724C203.607 113.404 203.495 114.916 203.271 116.26H169.251C169.531 119.62 170.707 122.252 172.779 124.156C174.851 126.06 177.399 127.012 180.423 127.012C184.791 127.012 187.899 125.136 189.747 121.384H202.431C201.087 125.864 198.511 129.56 194.703 132.472C190.895 135.328 186.219 136.756 180.675 136.756C176.195 136.756 172.163 135.776 168.579 133.816C165.051 131.8 162.279 128.972 160.263 125.332C158.303 121.692 157.323 117.492 157.323 112.732C157.323 107.916 158.303 103.688 160.263 100.048C162.223 96.408 164.967 93.608 168.495 91.648C172.023 89.688 176.083 88.708 180.675 88.708C185.099 88.708 189.047 89.66 192.519 91.564C196.047 93.468 198.763 96.184 200.667 99.712C202.627 103.184 203.607 107.188 203.607 111.724ZM191.427 108.364C191.371 105.34 190.279 102.932 188.151 101.14C186.023 99.292 183.419 98.368 180.339 98.368C177.427 98.368 174.963 99.264 172.947 101.056C170.987 102.792 169.783 105.228 169.335 108.364H191.427ZM209.167 112.564C209.167 107.86 210.091 103.688 211.939 100.048C213.843 96.408 216.391 93.608 219.583 91.648C222.831 89.688 226.443 88.708 230.419 88.708C233.891 88.708 236.915 89.408 239.491 90.808C242.123 92.208 244.223 93.972 245.791 96.1V89.464H257.635V136H245.791V129.196C244.279 131.38 242.179 133.2 239.491 134.656C236.859 136.056 233.807 136.756 230.335 136.756C226.415 136.756 222.831 135.748 219.583 133.732C216.391 131.716 213.843 128.888 211.939 125.248C210.091 121.552 209.167 117.324 209.167 112.564ZM245.791 112.732C245.791 109.876 245.231 107.44 244.111 105.424C242.991 103.352 241.479 101.784 239.575 100.72C237.671 99.6 235.627 99.04 233.443 99.04C231.259 99.04 229.243 99.572 227.395 100.636C225.547 101.7 224.035 103.268 222.859 105.34C221.739 107.356 221.179 109.764 221.179 112.564C221.179 115.364 221.739 117.828 222.859 119.956C224.035 122.028 225.547 123.624 227.395 124.744C229.299 125.864 231.315 126.424 233.443 126.424C235.627 126.424 237.671 125.892 239.575 124.828C241.479 123.708 242.991 122.14 244.111 120.124C245.231 118.052 245.791 115.588 245.791 112.732ZM280.88 73.84V136H269.12V73.84H280.88ZM310.307 136.756C306.499 136.756 303.083 136.084 300.059 134.74C297.035 133.34 294.627 131.464 292.835 129.112C291.099 126.76 290.147 124.156 289.979 121.3H301.823C302.047 123.092 302.915 124.576 304.427 125.752C305.995 126.928 307.927 127.516 310.223 127.516C312.463 127.516 314.199 127.068 315.431 126.172C316.719 125.276 317.363 124.128 317.363 122.728C317.363 121.216 316.579 120.096 315.011 119.368C313.499 118.584 311.063 117.744 307.703 116.848C304.231 116.008 301.375 115.14 299.135 114.244C296.951 113.348 295.047 111.976 293.423 110.128C291.855 108.28 291.071 105.788 291.071 102.652C291.071 100.076 291.799 97.724 293.255 95.596C294.767 93.468 296.895 91.788 299.639 90.556C302.439 89.324 305.715 88.708 309.467 88.708C315.011 88.708 319.435 90.108 322.739 92.908C326.043 95.652 327.863 99.376 328.199 104.08H316.943C316.775 102.232 315.991 100.776 314.591 99.712C313.247 98.592 311.427 98.032 309.131 98.032C307.003 98.032 305.351 98.424 304.175 99.208C303.055 99.992 302.495 101.084 302.495 102.484C302.495 104.052 303.279 105.256 304.847 106.096C306.415 106.88 308.851 107.692 312.155 108.532C315.515 109.372 318.287 110.24 320.471 111.136C322.655 112.032 324.531 113.432 326.099 115.336C327.723 117.184 328.563 119.648 328.619 122.728C328.619 125.416 327.863 127.824 326.351 129.952C324.895 132.08 322.767 133.76 319.967 134.992C317.223 136.168 314.003 136.756 310.307 136.756Z"/>
</mask>
<path d="M148.72 77.368V136H136.96V97.864L121.252 136H112.348L96.556 97.864V136H84.796V77.368H98.152L116.8 120.964L135.448 77.368H148.72ZM203.607 111.724C203.607 113.404 203.495 114.916 203.271 116.26H169.251C169.531 119.62 170.707 122.252 172.779 124.156C174.851 126.06 177.399 127.012 180.423 127.012C184.791 127.012 187.899 125.136 189.747 121.384H202.431C201.087 125.864 198.511 129.56 194.703 132.472C190.895 135.328 186.219 136.756 180.675 136.756C176.195 136.756 172.163 135.776 168.579 133.816C165.051 131.8 162.279 128.972 160.263 125.332C158.303 121.692 157.323 117.492 157.323 112.732C157.323 107.916 158.303 103.688 160.263 100.048C162.223 96.408 164.967 93.608 168.495 91.648C172.023 89.688 176.083 88.708 180.675 88.708C185.099 88.708 189.047 89.66 192.519 91.564C196.047 93.468 198.763 96.184 200.667 99.712C202.627 103.184 203.607 107.188 203.607 111.724ZM191.427 108.364C191.371 105.34 190.279 102.932 188.151 101.14C186.023 99.292 183.419 98.368 180.339 98.368C177.427 98.368 174.963 99.264 172.947 101.056C170.987 102.792 169.783 105.228 169.335 108.364H191.427ZM209.167 112.564C209.167 107.86 210.091 103.688 211.939 100.048C213.843 96.408 216.391 93.608 219.583 91.648C222.831 89.688 226.443 88.708 230.419 88.708C233.891 88.708 236.915 89.408 239.491 90.808C242.123 92.208 244.223 93.972 245.791 96.1V89.464H257.635V136H245.791V129.196C244.279 131.38 242.179 133.2 239.491 134.656C236.859 136.056 233.807 136.756 230.335 136.756C226.415 136.756 222.831 135.748 219.583 133.732C216.391 131.716 213.843 128.888 211.939 125.248C210.091 121.552 209.167 117.324 209.167 112.564ZM245.791 112.732C245.791 109.876 245.231 107.44 244.111 105.424C242.991 103.352 241.479 101.784 239.575 100.72C237.671 99.6 235.627 99.04 233.443 99.04C231.259 99.04 229.243 99.572 227.395 100.636C225.547 101.7 224.035 103.268 222.859 105.34C221.739 107.356 221.179 109.764 221.179 112.564C221.179 115.364 221.739 117.828 222.859 119.956C224.035 122.028 225.547 123.624 227.395 124.744C229.299 125.864 231.315 126.424 233.443 126.424C235.627 126.424 237.671 125.892 239.575 124.828C241.479 123.708 242.991 122.14 244.111 120.124C245.231 118.052 245.791 115.588 245.791 112.732ZM280.88 73.84V136H269.12V73.84H280.88ZM310.307 136.756C306.499 136.756 303.083 136.084 300.059 134.74C297.035 133.34 294.627 131.464 292.835 129.112C291.099 126.76 290.147 124.156 289.979 121.3H301.823C302.047 123.092 302.915 124.576 304.427 125.752C305.995 126.928 307.927 127.516 310.223 127.516C312.463 127.516 314.199 127.068 315.431 126.172C316.719 125.276 317.363 124.128 317.363 122.728C317.363 121.216 316.579 120.096 315.011 119.368C313.499 118.584 311.063 117.744 307.703 116.848C304.231 116.008 301.375 115.14 299.135 114.244C296.951 113.348 295.047 111.976 293.423 110.128C291.855 108.28 291.071 105.788 291.071 102.652C291.071 100.076 291.799 97.724 293.255 95.596C294.767 93.468 296.895 91.788 299.639 90.556C302.439 89.324 305.715 88.708 309.467 88.708C315.011 88.708 319.435 90.108 322.739 92.908C326.043 95.652 327.863 99.376 328.199 104.08H316.943C316.775 102.232 315.991 100.776 314.591 99.712C313.247 98.592 311.427 98.032 309.131 98.032C307.003 98.032 305.351 98.424 304.175 99.208C303.055 99.992 302.495 101.084 302.495 102.484C302.495 104.052 303.279 105.256 304.847 106.096C306.415 106.88 308.851 107.692 312.155 108.532C315.515 109.372 318.287 110.24 320.471 111.136C322.655 112.032 324.531 113.432 326.099 115.336C327.723 117.184 328.563 119.648 328.619 122.728C328.619 125.416 327.863 127.824 326.351 129.952C324.895 132.08 322.767 133.76 319.967 134.992C317.223 136.168 314.003 136.756 310.307 136.756Z" fill="white"/>
<path d="M148.72 77.368H155.72V70.368H148.72V77.368ZM148.72 136V143H155.72V136H148.72ZM136.96 136H129.96V143H136.96V136ZM136.96 97.864H143.96L130.488 95.198L136.96 97.864ZM121.252 136V143H125.939L127.724 138.666L121.252 136ZM112.348 136L105.881 138.678L107.67 143H112.348V136ZM96.556 97.864L103.023 95.1859L89.556 97.864H96.556ZM96.556 136V143H103.556V136H96.556ZM84.796 136H77.796V143H84.796V136ZM84.796 77.368V70.368H77.796V77.368H84.796ZM98.152 77.368L104.588 74.6151L102.771 70.368H98.152V77.368ZM116.8 120.964L110.364 123.717L116.8 138.763L123.236 123.717L116.8 120.964ZM135.448 77.368V70.368H130.829L129.012 74.6151L135.448 77.368ZM141.72 77.368V136H155.72V77.368H141.72ZM148.72 129H136.96V143H148.72V129ZM143.96 136V97.864H129.96V136H143.96ZM130.488 95.198L114.78 133.334L127.724 138.666L143.432 100.53L130.488 95.198ZM121.252 129H112.348V143H121.252V129ZM118.815 133.322L103.023 95.1859L90.0886 100.542L105.881 138.678L118.815 133.322ZM89.556 97.864V136H103.556V97.864H89.556ZM96.556 129H84.796V143H96.556V129ZM91.796 136V77.368H77.796V136H91.796ZM84.796 84.368H98.152V70.368H84.796V84.368ZM91.7161 80.1209L110.364 123.717L123.236 118.211L104.588 74.6151L91.7161 80.1209ZM123.236 123.717L141.884 80.1209L129.012 74.6151L110.364 118.211L123.236 123.717ZM135.448 84.368H148.72V70.368H135.448V84.368ZM203.271 116.26V123.26H209.201L210.176 117.411L203.271 116.26ZM169.251 116.26V109.26H161.643L162.275 116.841L169.251 116.26ZM172.779 124.156L168.042 129.31L172.779 124.156ZM189.747 121.384V114.384H185.392L183.467 118.291L189.747 121.384ZM202.431 121.384L209.136 123.395L211.839 114.384H202.431V121.384ZM194.703 132.472L198.903 138.072L198.929 138.052L198.955 138.033L194.703 132.472ZM168.579 133.816L165.106 139.894L165.163 139.926L165.22 139.958L168.579 133.816ZM160.263 125.332L154.099 128.651L154.119 128.687L154.139 128.723L160.263 125.332ZM160.263 100.048L154.099 96.7293H154.099L160.263 100.048ZM168.495 91.648L171.894 97.7671H171.894L168.495 91.648ZM192.519 91.564L189.153 97.7017L189.174 97.713L189.194 97.7242L192.519 91.564ZM200.667 99.712L194.507 103.037L194.538 103.095L194.571 103.153L200.667 99.712ZM191.427 108.364V115.364H198.558L198.426 108.234L191.427 108.364ZM188.151 101.14L183.561 106.425L183.601 106.46L183.642 106.494L188.151 101.14ZM172.947 101.056L177.588 106.296L177.597 106.288L172.947 101.056ZM169.335 108.364L162.405 107.374L161.264 115.364H169.335V108.364ZM196.607 111.724C196.607 113.104 196.514 114.221 196.366 115.109L210.176 117.411C210.476 115.611 210.607 113.704 210.607 111.724H196.607ZM203.271 109.26H169.251V123.26H203.271V109.26ZM162.275 116.841C162.67 121.586 164.428 125.989 168.042 129.31L177.515 119.002C176.985 118.515 176.391 117.654 176.227 115.679L162.275 116.841ZM168.042 129.31C171.508 132.495 175.787 134.012 180.423 134.012V120.012C179.01 120.012 178.194 119.625 177.515 119.002L168.042 129.31ZM180.423 134.012C183.622 134.012 186.798 133.317 189.647 131.598C192.514 129.867 194.603 127.367 196.026 124.477L183.467 118.291C183.043 119.153 182.654 119.467 182.412 119.612C182.153 119.769 181.592 120.012 180.423 120.012V134.012ZM189.747 128.384H202.431V114.384H189.747V128.384ZM195.726 119.373C194.817 122.404 193.119 124.871 190.451 126.911L198.955 138.033C203.902 134.249 207.357 129.324 209.136 123.395L195.726 119.373ZM190.503 126.872C188.098 128.675 184.963 129.756 180.675 129.756V143.756C187.474 143.756 193.691 141.981 198.903 138.072L190.503 126.872ZM180.675 129.756C177.252 129.756 174.394 129.018 171.937 127.674L165.22 139.958C169.931 142.534 175.137 143.756 180.675 143.756V129.756ZM172.052 127.738C169.664 126.374 167.797 124.488 166.386 121.94L154.139 128.723C156.76 133.456 160.437 137.226 165.106 139.894L172.052 127.738ZM166.426 122.013C165.093 119.538 164.323 116.51 164.323 112.732H150.323C150.323 118.474 151.512 123.846 154.099 128.651L166.426 122.013ZM164.323 112.732C164.323 108.883 165.1 105.83 166.426 103.367L154.099 96.7293C151.506 101.546 150.323 106.949 150.323 112.732H164.323ZM166.426 103.367C167.768 100.875 169.566 99.0605 171.894 97.7671L165.095 85.5289C160.367 88.1555 156.678 91.9411 154.099 96.7293L166.426 103.367ZM171.894 97.7671C174.246 96.4605 177.106 95.708 180.675 95.708V81.708C175.059 81.708 169.799 82.9155 165.095 85.5289L171.894 97.7671ZM180.675 95.708C184.063 95.708 186.829 96.4273 189.153 97.7017L195.885 85.4263C191.264 82.8927 186.135 81.708 180.675 81.708V95.708ZM189.194 97.7242C191.521 98.9797 193.251 100.71 194.507 103.037L206.827 96.3875C204.274 91.6579 200.573 87.9563 195.843 85.4038L189.194 97.7242ZM194.571 103.153C195.861 105.438 196.607 108.225 196.607 111.724H210.607C210.607 106.151 209.393 100.931 206.763 96.2708L194.571 103.153ZM198.426 108.234C198.336 103.39 196.478 99.001 192.66 95.7856L183.642 106.494C184.08 106.863 184.406 107.29 184.428 108.494L198.426 108.234ZM192.741 95.8548C189.217 92.7951 184.937 91.368 180.339 91.368V105.368C181.901 105.368 182.828 105.789 183.561 106.425L192.741 95.8548ZM180.339 91.368C175.86 91.368 171.7 92.7985 168.296 95.8241L177.597 106.288C178.225 105.73 178.993 105.368 180.339 105.368V91.368ZM168.306 95.8159C164.856 98.8714 163.037 102.954 162.405 107.374L176.264 109.354C176.529 107.502 177.118 106.713 177.588 106.296L168.306 95.8159ZM169.335 115.364H191.427V101.364H169.335V115.364ZM211.939 100.048L205.736 96.8035L205.716 96.8412L205.697 96.8792L211.939 100.048ZM219.583 91.648L215.966 85.6547L215.943 85.6687L215.92 85.6828L219.583 91.648ZM239.491 90.808L236.148 96.9584L236.176 96.9734L236.203 96.9881L239.491 90.808ZM245.791 96.1L240.155 100.252L252.791 117.4V96.1H245.791ZM245.791 89.464V82.464H238.791V89.464H245.791ZM257.635 89.464H264.635V82.464H257.635V89.464ZM257.635 136V143H264.635V136H257.635ZM245.791 136H238.791V143H245.791V136ZM245.791 129.196H252.791V106.787L240.035 125.212L245.791 129.196ZM239.491 134.656L242.778 140.836L242.801 140.824L242.825 140.811L239.491 134.656ZM219.583 133.732L215.845 139.65L215.868 139.665L215.891 139.679L219.583 133.732ZM211.939 125.248L205.678 128.378L205.706 128.436L205.736 128.492L211.939 125.248ZM244.111 105.424L237.953 108.753L237.972 108.788L237.991 108.823L244.111 105.424ZM239.575 100.72L236.025 106.754L236.092 106.793L236.16 106.831L239.575 100.72ZM227.395 100.636L223.902 94.5696V94.5696L227.395 100.636ZM222.859 105.34L216.771 101.885L216.755 101.913L216.739 101.94L222.859 105.34ZM222.859 119.956L216.664 123.216L216.716 123.315L216.771 123.411L222.859 119.956ZM227.395 124.744L223.766 130.73L223.806 130.754L223.845 130.778L227.395 124.744ZM239.575 124.828L242.989 130.939L243.057 130.901L243.124 130.862L239.575 124.828ZM244.111 120.124L250.23 123.523L250.249 123.488L250.268 123.453L244.111 120.124ZM216.167 112.564C216.167 108.793 216.902 105.735 218.18 103.217L205.697 96.8792C203.279 101.641 202.167 106.927 202.167 112.564H216.167ZM218.141 103.292C219.518 100.66 221.232 98.8492 223.245 97.6132L215.92 85.6828C211.549 88.3668 208.167 92.1556 205.736 96.8035L218.141 103.292ZM223.199 97.6413C225.302 96.3722 227.653 95.708 230.419 95.708V81.708C225.232 81.708 220.359 83.0037 215.966 85.6547L223.199 97.6413ZM230.419 95.708C232.938 95.708 234.772 96.2103 236.148 96.9584L242.833 84.6576C239.058 82.6057 234.843 81.708 230.419 81.708V95.708ZM236.203 96.9881C238.03 97.9595 239.283 99.0694 240.155 100.252L251.426 91.9476C249.162 88.8746 246.216 86.4565 242.778 84.6279L236.203 96.9881ZM252.791 96.1V89.464H238.791V96.1H252.791ZM245.791 96.464H257.635V82.464H245.791V96.464ZM250.635 89.464V136H264.635V89.464H250.635ZM257.635 129H245.791V143H257.635V129ZM252.791 136V129.196H238.791V136H252.791ZM240.035 125.212C239.237 126.364 238.024 127.489 236.157 128.501L242.825 140.811C246.333 138.911 249.32 136.396 251.546 133.18L240.035 125.212ZM236.203 128.476C234.738 129.255 232.85 129.756 230.335 129.756V143.756C234.764 143.756 238.979 142.857 242.778 140.836L236.203 128.476ZM230.335 129.756C227.684 129.756 225.384 129.094 223.274 127.785L215.891 139.679C220.277 142.402 225.145 143.756 230.335 143.756V129.756ZM223.32 127.814C221.262 126.514 219.525 124.65 218.141 122.004L205.736 128.492C208.16 133.126 211.519 136.918 215.845 139.65L223.32 127.814ZM218.2 122.118C216.906 119.531 216.167 116.403 216.167 112.564H202.167C202.167 118.245 203.275 123.573 205.678 128.378L218.2 122.118ZM252.791 112.732C252.791 108.967 252.05 105.301 250.23 102.025L237.991 108.823C238.411 109.579 238.791 110.785 238.791 112.732H252.791ZM250.268 102.095C248.569 98.9517 246.146 96.3735 242.989 94.6094L236.16 106.831C236.811 107.195 237.412 107.752 237.953 108.753L250.268 102.095ZM243.124 94.6865C240.157 92.9413 236.89 92.04 233.443 92.04V106.04C234.364 106.04 235.184 106.259 236.025 106.754L243.124 94.6865ZM233.443 92.04C230.064 92.04 226.839 92.8786 223.902 94.5696L230.887 106.702C231.646 106.265 232.453 106.04 233.443 106.04V92.04ZM223.902 94.5696C220.848 96.3277 218.489 98.8569 216.771 101.885L228.946 108.795C229.58 107.679 230.245 107.072 230.887 106.702L223.902 94.5696ZM216.739 101.94C214.93 105.197 214.179 108.828 214.179 112.564H228.179C228.179 110.7 228.547 109.515 228.978 108.74L216.739 101.94ZM214.179 112.564C214.179 116.313 214.934 119.929 216.664 123.216L229.053 116.696C228.543 115.727 228.179 114.415 228.179 112.564H214.179ZM216.771 123.411C218.475 126.414 220.794 128.929 223.766 130.73L231.023 118.758C230.299 118.319 229.594 117.642 228.946 116.501L216.771 123.411ZM223.845 130.778C226.782 132.505 230.018 133.424 233.443 133.424V119.424C232.611 119.424 231.815 119.223 230.944 118.71L223.845 130.778ZM233.443 133.424C236.82 133.424 240.04 132.587 242.989 130.939L236.16 118.717C235.301 119.197 234.433 119.424 233.443 119.424V133.424ZM243.124 130.862C246.152 129.08 248.531 126.581 250.23 123.523L237.991 116.724C237.45 117.699 236.805 118.336 236.025 118.794L243.124 130.862ZM250.268 123.453C252.047 120.162 252.791 116.505 252.791 112.732H238.791C238.791 114.671 238.414 115.942 237.953 116.795L250.268 123.453ZM280.88 73.84H287.88V66.84H280.88V73.84ZM280.88 136V143H287.88V136H280.88ZM269.12 136H262.12V143H269.12V136ZM269.12 73.84V66.84H262.12V73.84H269.12ZM273.88 73.84V136H287.88V73.84H273.88ZM280.88 129H269.12V143H280.88V129ZM276.12 136V73.84H262.12V136H276.12ZM269.12 80.84H280.88V66.84H269.12V80.84ZM300.059 134.74L297.118 141.092L297.167 141.115L297.216 141.137L300.059 134.74ZM292.835 129.112L287.203 133.269L287.235 133.312L287.267 133.354L292.835 129.112ZM289.979 121.3V114.3H282.555L282.991 121.711L289.979 121.3ZM301.823 121.3L308.769 120.432L308.003 114.3H301.823V121.3ZM304.427 125.752L300.13 131.277L300.178 131.315L300.227 131.352L304.427 125.752ZM315.431 126.172L311.434 120.426L311.373 120.468L311.314 120.511L315.431 126.172ZM315.011 119.368L311.789 125.582L311.925 125.653L312.063 125.717L315.011 119.368ZM307.703 116.848L309.507 110.084L309.428 110.063L309.349 110.044L307.703 116.848ZM299.135 114.244L296.478 120.72L296.507 120.732L296.535 120.743L299.135 114.244ZM293.423 110.128L288.086 114.657L288.125 114.703L288.165 114.749L293.423 110.128ZM293.255 95.596L287.549 91.5415L287.513 91.5921L287.478 91.6432L293.255 95.596ZM299.639 90.556L296.82 84.1488L296.796 84.1594L296.772 84.1701L299.639 90.556ZM322.739 92.908L318.213 98.2483L318.24 98.2708L318.267 98.293L322.739 92.908ZM328.199 104.08V111.08H335.717L335.181 103.581L328.199 104.08ZM316.943 104.08L309.972 104.714L310.551 111.08H316.943V104.08ZM314.591 99.712L310.11 105.09L310.23 105.19L310.356 105.285L314.591 99.712ZM304.175 99.208L300.292 93.3836L300.226 93.4278L300.161 93.4734L304.175 99.208ZM304.847 106.096L301.542 112.266L301.628 112.313L301.717 112.357L304.847 106.096ZM312.155 108.532L310.43 115.316L310.444 115.32L310.457 115.323L312.155 108.532ZM326.099 115.336L320.696 119.786L320.767 119.873L320.841 119.957L326.099 115.336ZM328.619 122.728H335.619V122.664L335.618 122.601L328.619 122.728ZM326.351 129.952L320.645 125.898L320.609 125.948L320.574 125.999L326.351 129.952ZM319.967 134.992L322.725 141.426L322.755 141.413L322.786 141.399L319.967 134.992ZM310.307 129.756C307.332 129.756 304.906 129.234 302.902 128.343L297.216 141.137C301.26 142.934 305.667 143.756 310.307 143.756V129.756ZM303 128.388C300.877 127.405 299.421 126.205 298.403 124.87L287.267 133.354C289.834 136.723 293.193 139.275 297.118 141.092L303 128.388ZM298.467 124.955C297.518 123.669 297.054 122.36 296.967 120.889L282.991 121.711C283.241 125.952 284.68 129.851 287.203 133.269L298.467 124.955ZM289.979 128.3H301.823V114.3H289.979V128.3ZM294.877 122.168C295.347 125.923 297.251 129.038 300.13 131.277L308.725 120.227C308.654 120.172 308.628 120.142 308.631 120.145C308.634 120.148 308.656 120.174 308.684 120.223C308.713 120.272 308.737 120.324 308.753 120.373C308.768 120.42 308.771 120.443 308.769 120.432L294.877 122.168ZM300.227 131.352C303.206 133.586 306.682 134.516 310.223 134.516V120.516C309.173 120.516 308.785 120.27 308.627 120.152L300.227 131.352ZM310.223 134.516C313.278 134.516 316.676 133.922 319.548 131.833L311.314 120.511C311.524 120.358 311.62 120.36 311.456 120.402C311.28 120.447 310.893 120.516 310.223 120.516V134.516ZM319.429 131.918C322.333 129.898 324.363 126.724 324.363 122.728H310.363C310.363 122.307 310.473 121.753 310.775 121.214C311.061 120.704 311.374 120.467 311.434 120.426L319.429 131.918ZM324.363 122.728C324.363 120.695 323.812 118.6 322.51 116.74C321.247 114.936 319.57 113.767 317.959 113.019L312.063 125.717C312.02 125.697 311.519 125.452 311.04 124.768C310.522 124.028 310.363 123.249 310.363 122.728H324.363ZM318.233 113.154C316.011 112.002 312.961 111.005 309.507 110.084L305.899 123.612C309.166 124.483 310.987 125.166 311.789 125.582L318.233 113.154ZM309.349 110.044C306.063 109.249 303.556 108.473 301.735 107.745L296.535 120.743C299.195 121.807 302.399 122.767 306.057 123.652L309.349 110.044ZM301.792 107.768C300.649 107.299 299.624 106.58 298.681 105.507L288.165 114.749C290.47 117.372 293.253 119.397 296.478 120.72L301.792 107.768ZM298.761 105.599C298.549 105.349 298.071 104.626 298.071 102.652H284.071C284.071 106.95 285.161 111.211 288.086 114.657L298.761 105.599ZM298.071 102.652C298.071 101.488 298.372 100.514 299.032 99.5488L287.478 91.6432C285.226 94.9343 284.071 98.6639 284.071 102.652H298.071ZM298.961 99.6504C299.648 98.6848 300.724 97.7423 302.506 96.9419L296.772 84.1701C293.067 85.8337 289.887 88.2512 287.549 91.5415L298.961 99.6504ZM302.458 96.9632C304.193 96.2001 306.471 95.708 309.467 95.708V81.708C304.959 81.708 300.686 82.4479 296.82 84.1488L302.458 96.9632ZM309.467 95.708C313.829 95.708 316.494 96.7914 318.213 98.2483L327.265 87.5677C322.376 83.4246 316.194 81.708 309.467 81.708V95.708ZM318.267 98.293C319.951 99.6921 321.002 101.571 321.217 104.579L335.181 103.581C334.724 97.181 332.135 91.6119 327.211 87.523L318.267 98.293ZM328.199 97.08H316.943V111.08H328.199V97.08ZM323.914 103.446C323.58 99.7627 321.887 96.4644 318.827 94.1389L310.356 105.285C310.342 105.275 310.296 105.237 310.236 105.168C310.175 105.098 310.116 105.013 310.066 104.921C309.959 104.722 309.963 104.615 309.972 104.714L323.914 103.446ZM319.072 94.3345C316.123 91.8766 312.547 91.032 309.131 91.032V105.032C309.72 105.032 310.037 105.105 310.16 105.142C310.262 105.174 310.211 105.174 310.11 105.09L319.072 94.3345ZM309.131 91.032C306.276 91.032 303.063 91.5364 300.292 93.3836L308.058 105.032C307.831 105.183 307.736 105.179 307.912 105.137C308.095 105.093 308.481 105.032 309.131 105.032V91.032ZM300.161 93.4734C297.117 95.6044 295.495 98.8653 295.495 102.484H309.495C309.495 102.737 309.438 103.236 309.144 103.809C308.846 104.389 308.455 104.757 308.189 104.943L300.161 93.4734ZM295.495 102.484C295.495 104.495 296.018 106.541 297.217 108.383C298.387 110.179 299.964 111.421 301.542 112.266L308.153 99.9256C308.162 99.9309 308.563 100.151 308.949 100.743C309.365 101.381 309.495 102.041 309.495 102.484H295.495ZM301.717 112.357C303.977 113.487 307.005 114.445 310.43 115.316L313.88 101.748C310.697 100.939 308.854 100.273 307.978 99.835L301.717 112.357ZM310.457 115.323C313.627 116.115 316.049 116.888 317.814 117.612L323.128 104.66C320.525 103.592 317.404 102.629 313.853 101.741L310.457 115.323ZM317.814 117.612C318.881 118.05 319.828 118.732 320.696 119.786L331.503 110.886C329.234 108.132 326.429 106.014 323.128 104.66L317.814 117.612ZM320.841 119.957C321.117 120.271 321.587 121.001 321.62 122.855L335.618 122.601C335.54 118.295 334.329 114.097 331.357 110.715L320.841 119.957ZM321.619 122.728C321.619 124.009 321.289 124.991 320.645 125.898L332.057 134.006C334.437 130.657 335.619 126.823 335.619 122.728H321.619ZM320.574 125.999C319.983 126.862 318.978 127.78 317.148 128.585L322.786 141.399C326.557 139.74 329.807 137.298 332.128 133.905L320.574 125.999ZM317.21 128.558C315.518 129.283 313.274 129.756 310.307 129.756V143.756C314.732 143.756 318.928 143.053 322.725 141.426L317.21 128.558Z" fill="#52361F" mask="url(#path-3-outside-2_3003_1295)"/>
</svg>
