<svg width="229" height="79" viewBox="0 0 229 79" fill="none" xmlns="http://www.w3.org/2000/svg">
<line x1="0.881946" y1="77.5047" x2="228.882" y2="59.5047" stroke="#009833" stroke-width="3"/>
<path d="M26.024 18.892V24.09H17.468V51H11.028V24.09H2.472V18.892H26.024ZM37.1628 29.472C37.9908 28.1227 39.0642 27.0647 40.3828 26.298C41.7322 25.5313 43.2655 25.148 44.9828 25.148V31.91H43.2808C41.2568 31.91 39.7235 32.3853 38.6808 33.336C37.6688 34.2867 37.1628 35.9427 37.1628 38.304V51H30.7228V25.516H37.1628V29.472ZM47.6645 38.166C47.6645 35.59 48.1705 33.3053 49.1825 31.312C50.2252 29.3187 51.6205 27.7853 53.3685 26.712C55.1472 25.6387 57.1252 25.102 59.3025 25.102C61.2038 25.102 62.8598 25.4853 64.2705 26.252C65.7118 27.0187 66.8618 27.9847 67.7205 29.15V25.516H74.2065V51H67.7205V47.274C66.8925 48.47 65.7425 49.4667 64.2705 50.264C62.8292 51.0307 61.1578 51.414 59.2565 51.414C57.1098 51.414 55.1472 50.862 53.3685 49.758C51.6205 48.654 50.2252 47.1053 49.1825 45.112C48.1705 43.088 47.6645 40.7727 47.6645 38.166ZM67.7205 38.258C67.7205 36.694 67.4138 35.36 66.8005 34.256C66.1872 33.1213 65.3592 32.2627 64.3165 31.68C63.2738 31.0667 62.1545 30.76 60.9585 30.76C59.7625 30.76 58.6585 31.0513 57.6465 31.634C56.6345 32.2167 55.8065 33.0753 55.1625 34.21C54.5492 35.314 54.2425 36.6327 54.2425 38.166C54.2425 39.6993 54.5492 41.0487 55.1625 42.214C55.8065 43.3487 56.6345 44.2227 57.6465 44.836C58.6892 45.4493 59.7932 45.756 60.9585 45.756C62.1545 45.756 63.2738 45.4647 64.3165 44.882C65.3592 44.2687 66.1872 43.41 66.8005 42.306C67.4138 41.1713 67.7205 39.822 67.7205 38.258ZM78.8403 38.166C78.8403 35.59 79.3463 33.3053 80.3583 31.312C81.4009 29.3187 82.8116 27.7853 84.5903 26.712C86.3689 25.6387 88.3469 25.102 90.5243 25.102C92.1803 25.102 93.7596 25.47 95.2623 26.206C96.7649 26.9113 97.9609 27.862 98.8503 29.058V16.96H105.382V51H98.8503V47.228C98.0529 48.4853 96.9336 49.4973 95.4923 50.264C94.0509 51.0307 92.3796 51.414 90.4783 51.414C88.3316 51.414 86.3689 50.862 84.5903 49.758C82.8116 48.654 81.4009 47.1053 80.3583 45.112C79.3463 43.088 78.8403 40.7727 78.8403 38.166ZM98.8963 38.258C98.8963 36.694 98.5896 35.36 97.9763 34.256C97.3629 33.1213 96.5349 32.2627 95.4923 31.68C94.4496 31.0667 93.3303 30.76 92.1343 30.76C90.9383 30.76 89.8343 31.0513 88.8223 31.634C87.8103 32.2167 86.9823 33.0753 86.3383 34.21C85.7249 35.314 85.4183 36.6327 85.4183 38.166C85.4183 39.6993 85.7249 41.0487 86.3383 42.214C86.9823 43.3487 87.8103 44.2227 88.8223 44.836C89.8649 45.4493 90.9689 45.756 92.1343 45.756C93.3303 45.756 94.4496 45.4647 95.4923 44.882C96.5349 44.2687 97.3629 43.41 97.9763 42.306C98.5896 41.1713 98.8963 39.822 98.8963 38.258ZM114.938 22.48C113.803 22.48 112.853 22.1273 112.086 21.422C111.35 20.686 110.982 19.7813 110.982 18.708C110.982 17.6347 111.35 16.7453 112.086 16.04C112.853 15.304 113.803 14.936 114.938 14.936C116.073 14.936 117.008 15.304 117.744 16.04C118.511 16.7453 118.894 17.6347 118.894 18.708C118.894 19.7813 118.511 20.686 117.744 21.422C117.008 22.1273 116.073 22.48 114.938 22.48ZM118.112 25.516V51H111.672V25.516H118.112ZM131.973 30.806V43.134C131.973 43.9927 132.172 44.6213 132.571 45.02C133 45.388 133.705 45.572 134.687 45.572H137.677V51H133.629C128.201 51 125.487 48.3627 125.487 43.088V30.806H122.451V25.516H125.487V19.214H131.973V25.516H137.677V30.806H131.973ZM145.575 22.48C144.44 22.48 143.489 22.1273 142.723 21.422C141.987 20.686 141.619 19.7813 141.619 18.708C141.619 17.6347 141.987 16.7453 142.723 16.04C143.489 15.304 144.44 14.936 145.575 14.936C146.709 14.936 147.645 15.304 148.381 16.04C149.147 16.7453 149.531 17.6347 149.531 18.708C149.531 19.7813 149.147 20.686 148.381 21.422C147.645 22.1273 146.709 22.48 145.575 22.48ZM148.749 25.516V51H142.309V25.516H148.749ZM166.428 51.414C163.974 51.414 161.766 50.8773 159.804 49.804C157.841 48.7 156.292 47.1513 155.158 45.158C154.054 43.1647 153.502 40.8647 153.502 38.258C153.502 35.6513 154.069 33.3513 155.204 31.358C156.369 29.3647 157.948 27.8313 159.942 26.758C161.935 25.654 164.158 25.102 166.612 25.102C169.065 25.102 171.288 25.654 173.282 26.758C175.275 27.8313 176.839 29.3647 177.974 31.358C179.139 33.3513 179.722 35.6513 179.722 38.258C179.722 40.8647 179.124 43.1647 177.927 45.158C176.762 47.1513 175.168 48.7 173.144 49.804C171.15 50.8773 168.912 51.414 166.428 51.414ZM166.428 45.802C167.593 45.802 168.682 45.526 169.694 44.974C170.736 44.3913 171.564 43.5327 172.178 42.398C172.791 41.2633 173.098 39.8833 173.098 38.258C173.098 35.8353 172.454 33.98 171.166 32.692C169.908 31.3733 168.36 30.714 166.52 30.714C164.68 30.714 163.131 31.3733 161.874 32.692C160.647 33.98 160.034 35.8353 160.034 38.258C160.034 40.6807 160.632 42.5513 161.828 43.87C163.054 45.158 164.588 45.802 166.428 45.802ZM198.567 25.148C201.603 25.148 204.057 26.114 205.927 28.046C207.798 29.9473 208.733 32.6153 208.733 36.05V51H202.293V36.924C202.293 34.9 201.787 33.3513 200.775 32.278C199.763 31.174 198.383 30.622 196.635 30.622C194.857 30.622 193.446 31.174 192.403 32.278C191.391 33.3513 190.885 34.9 190.885 36.924V51H184.445V25.516H190.885V28.69C191.744 27.586 192.833 26.7273 194.151 26.114C195.501 25.47 196.973 25.148 198.567 25.148Z" fill="#009833"/>
</svg>
